<svg width="21" height="17" viewBox="0 0 21 17" fill="none" xmlns="http://www.w3.org/2000/svg">
<path d="M5.54762 6C5.13716 6 4.74352 6.15804 4.45329 6.43934C4.16305 6.72064 4 7.10218 4 7.5C4 7.89782 4.16305 8.27936 4.45329 8.56066C4.74352 8.84196 5.13716 9 5.54762 9C5.95807 9 6.35172 8.84196 6.64195 8.56066C6.93219 8.27936 7.09524 7.89782 7.09524 7.5C7.09524 7.10218 6.93219 6.72064 6.64195 6.43934C6.35172 6.15804 5.95807 6 5.54762 6ZM10.5 6C10.0895 6 9.6959 6.15804 9.40567 6.43934C9.11543 6.72064 8.95238 7.10218 8.95238 7.5C8.95238 7.89782 9.11543 8.27936 9.40567 8.56066C9.6959 8.84196 10.0895 9 10.5 9C10.9105 9 11.3041 8.84196 11.5943 8.56066C11.8846 8.27936 12.0476 7.89782 12.0476 7.5C12.0476 7.10218 11.8846 6.72064 11.5943 6.43934C11.3041 6.15804 10.9105 6 10.5 6ZM13.9048 7.5C13.9048 7.10218 14.0678 6.72064 14.358 6.43934C14.6483 6.15804 15.0419 6 15.4524 6C15.8628 6 16.2565 6.15804 16.5467 6.43934C16.8369 6.72064 17 7.10218 17 7.5C17 7.89782 16.8369 8.27936 16.5467 8.56066C16.2565 8.84196 15.8628 9 15.4524 9C15.0419 9 14.6483 8.84196 14.358 8.56066C14.0678 8.27936 13.9048 7.89782 13.9048 7.5Z" fill="white"/>
<path fill-rule="evenodd" clip-rule="evenodd" d="M15.6671 0.216901C12.3826 -0.0554922 9.08088 -0.0713504 5.79377 0.169479L5.55846 0.187262C4.04711 0.298169 2.63464 0.96017 1.60392 2.04069C0.573196 3.12121 0.000313783 4.54047 0 6.01426V16.1116C0.000139614 16.2653 0.0412577 16.4164 0.119342 16.55C0.197426 16.6837 0.309808 16.7954 0.445523 16.8742C0.581238 16.953 0.735649 16.9963 0.893688 16.9998C1.05173 17.0033 1.208 16.9668 1.34725 16.8941L6.11443 14.4032C6.33667 14.2871 6.5851 14.2264 6.83743 14.2266H17.7812C19.1614 14.2266 20.344 13.2663 20.5915 11.9468C21.0939 9.27098 21.1329 6.53235 20.7086 3.84351L20.5842 3.05037C20.4736 2.34949 20.1238 1.70513 19.5911 1.22089C19.0584 0.736647 18.3737 0.440658 17.6471 0.380507L15.6671 0.216901ZM5.93276 1.94307C9.12243 1.70905 12.3263 1.72412 15.5134 1.98812L17.4935 2.15291C18.147 2.20745 18.6786 2.68997 18.7773 3.32068L18.9029 4.11263C19.2956 6.60626 19.2585 9.14607 18.7932 11.6279C18.7501 11.858 18.6253 12.0662 18.4406 12.2161C18.2559 12.366 18.023 12.4482 17.7824 12.4483H6.83743C6.28337 12.4483 5.73797 12.582 5.24999 12.8371L1.82884 14.6249V6.01307C1.8289 4.98778 2.22727 4.00035 2.94418 3.24851C3.66108 2.49666 4.64361 2.0359 5.69501 1.95848L5.93154 1.94188L5.93276 1.94307Z" fill="white"/>
</svg>
