<svg width="26" height="26" viewBox="0 0 26 26" fill="none" xmlns="http://www.w3.org/2000/svg">
<path d="M17.0626 13C16.0165 13 15.011 12.5328 14.2188 11.6898C13.452 10.8672 12.9797 9.76523 12.8985 8.59219C12.8122 7.34297 13.193 6.19023 13.97 5.35234C14.7469 4.51953 15.8438 4.0625 17.0626 4.0625C18.2712 4.0625 19.368 4.52461 20.145 5.35742C20.9321 6.20039 21.3129 7.34805 21.2215 8.58711C21.1352 9.76016 20.668 10.8621 19.9012 11.6848C19.1141 12.5328 18.1087 13 17.0626 13ZM17.0626 5.6875C16.3008 5.6875 15.6254 5.96172 15.1633 6.45937C14.686 6.97227 14.4676 7.66797 14.5235 8.47539C14.5794 9.27773 14.8942 10.0293 15.4122 10.5828C15.8895 11.0957 16.4786 11.375 17.0626 11.375C17.6516 11.375 18.2356 11.0906 18.7129 10.5828C19.2309 10.0293 19.5458 9.28281 19.6016 8.47539C19.6575 7.69336 19.429 6.97734 18.9516 6.46953C18.4895 5.96172 17.8141 5.6875 17.0626 5.6875Z" fill="#8C8787"/>
<path d="M23.7555 21.9375H10.3696C9.9278 21.9375 9.52155 21.7394 9.25241 21.3941C8.97311 21.0335 8.87155 20.546 8.98327 20.0839C9.40983 18.3675 10.4712 16.9457 12.0454 15.9656C13.4419 15.0972 15.2243 14.6199 17.0575 14.6199C18.9262 14.6199 20.663 15.0769 22.0696 15.9453C23.6489 16.9152 24.7102 18.3472 25.1368 20.0839C25.2485 20.546 25.1469 21.0335 24.8676 21.3941C24.6036 21.7394 24.1973 21.9375 23.7555 21.9375ZM10.6083 20.3125H23.5219C22.6841 17.3164 19.5407 16.25 17.0626 16.25C14.5946 16.25 11.4563 17.3164 10.6083 20.3125Z" fill="#8C8787"/>
<path d="M7.46488 13.2032C5.67738 13.2032 4.10824 11.5426 3.96098 9.50122C3.88481 8.45513 4.20981 7.49028 4.86996 6.77935C5.52504 6.07856 6.44418 5.69263 7.45981 5.69263C8.47035 5.69263 9.38949 6.08364 10.0446 6.7895C10.7098 7.50552 11.0348 8.47036 10.9586 9.5063C10.8215 11.5426 9.24731 13.2032 7.46488 13.2032ZM7.46488 7.31255C6.90629 7.31255 6.40863 7.51567 6.06332 7.88638C5.70785 8.26724 5.54027 8.78521 5.58598 9.38442C5.67231 10.5727 6.53051 11.5782 7.46488 11.5782C8.39926 11.5782 9.26254 10.5727 9.34379 9.38442C9.38442 8.80044 9.21176 8.27231 8.86137 7.89145C8.51606 7.51567 8.0184 7.31255 7.46488 7.31255Z" fill="#8C8787"/>
<path d="M7.82035 20.3125H2.11762C1.71645 20.3125 1.34574 20.1297 1.09691 19.82C0.843008 19.495 0.751601 19.0481 0.853164 18.6317C1.20355 17.2149 2.07699 16.0469 3.37191 15.2446C4.51449 14.5387 5.96684 14.1477 7.4598 14.1477C8.73949 14.1477 9.83129 14.361 10.7961 14.8028C11.2024 14.9907 11.3852 15.4731 11.1973 15.8793C11.0094 16.2856 10.527 16.4684 10.1207 16.2805C9.37426 15.9403 8.5059 15.7727 7.46488 15.7727C5.61137 15.7727 3.27035 16.5446 2.52895 18.6926H7.82035C8.26723 18.6926 8.63285 19.0583 8.63285 19.5051C8.63285 19.952 8.26723 20.3125 7.82035 20.3125Z" fill="#8C8787"/>
</svg>
