<svg width="36" height="36" viewBox="0 0 36 36" fill="none" xmlns="http://www.w3.org/2000/svg">
<rect width="36" height="36" rx="18" fill="#92140C"/>
<path d="M10.318 12.318C9.90017 12.7359 9.5687 13.232 9.34255 13.778C9.1164 14.3239 9 14.9091 9 15.5C9 16.091 9.1164 16.6762 9.34255 17.2221C9.5687 17.7681 9.90017 18.2642 10.318 18.682L18 26.364L25.682 18.682C26.526 17.8381 27.0001 16.6935 27.0001 15.5C27.0001 14.3066 26.526 13.162 25.682 12.318C24.8381 11.4741 23.6935 11 22.5 11C21.3066 11 20.162 11.4741 19.318 12.318L18 13.636L16.682 12.318C16.2642 11.9002 15.7681 11.5687 15.2221 11.3425C14.6762 11.1164 14.091 11 13.5 11C12.9091 11 12.3239 11.1164 11.778 11.3425C11.232 11.5687 10.7359 11.9002 10.318 12.318Z" stroke="#F5F5F5" stroke-width="2" stroke-linecap="round" stroke-linejoin="round"/>
</svg>
