<svg width="25" height="23" viewBox="0 0 25 23" fill="none" xmlns="http://www.w3.org/2000/svg">
<path d="M15.6255 17.25V17.9687C15.6255 18.7312 15.2963 19.4625 14.7103 20.0017C14.1242 20.5408 13.3293 20.8437 12.5005 20.8437C11.6717 20.8437 10.8769 20.5408 10.2908 20.0017C9.70479 19.4625 9.37555 18.7312 9.37555 17.9687V17.25M20.8834 15.7869C19.6295 14.375 18.7442 13.6563 18.7442 9.76377C18.7442 6.19922 16.7657 4.92928 15.1373 4.3125C14.921 4.23074 14.7173 4.04297 14.6514 3.83857C14.3658 2.94418 13.565 2.15625 12.5005 2.15625C11.4361 2.15625 10.6348 2.94463 10.3521 3.83947C10.2862 4.04611 10.0826 4.23074 9.86627 4.3125C8.2359 4.93018 6.25934 6.19563 6.25934 9.76377C6.25689 13.6563 5.37164 14.375 4.11773 15.7869C3.5982 16.3718 4.05328 17.25 4.96197 17.25H12.503H20.044C20.9478 17.25 21.4 16.3691 20.8834 15.7869Z" stroke="white" stroke-width="2" stroke-linecap="round" stroke-linejoin="round"/>
</svg>
