<svg width="21" height="21" viewBox="0 0 21 21" fill="none" xmlns="http://www.w3.org/2000/svg">
<mask id="mask0_53_6250" style="mask-type:alpha" maskUnits="userSpaceOnUse" x="0" y="0" width="21" height="21">
<rect width="21" height="21" fill="#D9D9D9"/>
</mask>
<g mask="url(#mask0_53_6250)">
<path d="M13.4612 8.07692H14.9756C15.3772 8.07692 15.7624 8.23648 16.0465 8.52049C16.3305 8.8045 16.49 9.1897 16.49 9.59135V16.8606C16.49 17.2622 16.3305 17.6474 16.0465 17.9314C15.7624 18.2154 15.3772 18.375 14.9756 18.375H5.88906C5.48741 18.375 5.10221 18.2154 4.8182 17.9314C4.53419 17.6474 4.37463 17.2622 4.37463 16.8606V9.59135C4.37463 9.1897 4.53419 8.8045 4.8182 8.52049C5.10221 8.23648 5.48741 8.07692 5.88906 8.07692H7.40348M13.4612 5.65385L10.4323 2.625M10.4323 2.625L7.40348 5.65385M10.4323 2.625V12.9609" stroke="white" stroke-width="1.38462" stroke-linecap="round" stroke-linejoin="round"/>
</g>
</svg>
