<svg width="37" height="37" viewBox="0 0 37 37" fill="none" xmlns="http://www.w3.org/2000/svg">
<path d="M24.5645 29.2916C24.2512 29.2923 23.9416 29.2415 23.6586 29.1428C23.3755 29.0441 23.1261 28.9 22.9287 28.7211L12.7989 19.4711C12.4904 19.1953 12.3218 18.8493 12.3218 18.4922C12.3218 18.1351 12.4904 17.7891 12.7989 17.5132L23.2852 8.26323C23.6412 7.9484 24.1527 7.75041 24.7073 7.71282C25.2619 7.67524 25.8141 7.80113 26.2424 8.06281C26.6707 8.32449 26.94 8.70052 26.9911 9.10818C27.0423 9.51584 26.871 9.92173 26.515 10.2366L17.1402 18.4999L26.2004 26.7632C26.4569 26.9895 26.6198 27.2651 26.6699 27.5573C26.7199 27.8495 26.6551 28.1462 26.483 28.4122C26.3109 28.6781 26.0388 28.9023 25.6988 29.0582C25.3588 29.214 24.9652 29.295 24.5645 29.2916Z" fill="#FFCF99"/>
</svg>
