<svg width="26" height="26" viewBox="0 0 26 26" fill="none" xmlns="http://www.w3.org/2000/svg">
<path fill-rule="evenodd" clip-rule="evenodd" d="M2.4375 13C2.4375 7.16846 7.16846 2.4375 13 2.4375C18.8315 2.4375 23.5625 7.16846 23.5625 13C23.5625 18.8315 18.8315 23.5625 13 23.5625C7.16846 23.5625 2.4375 18.8315 2.4375 13ZM13 4.0625C8.06592 4.0625 4.0625 8.06592 4.0625 13C4.0625 17.9341 8.06592 21.9375 13 21.9375C17.9341 21.9375 21.9375 17.9341 21.9375 13C21.9375 8.06592 17.9341 4.0625 13 4.0625Z" fill="white"/>
<path fill-rule="evenodd" clip-rule="evenodd" d="M13 8.125C13.4487 8.125 13.8125 8.48877 13.8125 8.9375V17.0625C13.8125 17.5112 13.4487 17.875 13 17.875C12.5513 17.875 12.1875 17.5112 12.1875 17.0625V8.9375C12.1875 8.48877 12.5513 8.125 13 8.125Z" fill="white"/>
<path fill-rule="evenodd" clip-rule="evenodd" d="M8.125 13C8.125 12.5513 8.48877 12.1875 8.9375 12.1875H17.0625C17.5112 12.1875 17.875 12.5513 17.875 13C17.875 13.4487 17.5112 13.8125 17.0625 13.8125H8.9375C8.48877 13.8125 8.125 13.4487 8.125 13Z" fill="white"/>
</svg>
