<svg width="168" height="214" viewBox="0 0 168 214" fill="none" xmlns="http://www.w3.org/2000/svg">
<path d="M102.361 11.1001C97.1282 8.0459 94.7378 14.3447 97.9903 16.1322C97.9903 16.1322 97.5381 18.9193 99.9947 20.0167C102.956 21.3362 104.482 19.7311 104.482 19.7311C104.482 19.7311 106.664 21.7963 109.289 20.0987C111.513 18.6602 111.521 14.6012 108.089 13.6809C109.448 11.7532 105.49 6.74489 102.361 11.1001Z" fill="#F8BE52"/>
<path d="M107.153 21.6111C106.071 21.6111 105.124 21.2197 104.469 20.7913C103.638 21.2832 102.007 21.8411 99.6507 20.7913C97.5723 19.8632 97.0778 17.8614 97.1043 16.5631C96.2078 15.8729 95.6763 14.8046 95.6605 13.612C95.642 12.118 96.43 10.6874 97.6702 9.96287C98.4238 9.52392 99.9575 8.99505 102.136 10.0237C103.905 8.03516 105.91 8.27844 107.266 9.24362C108.52 10.1374 109.416 11.7848 109.184 13.181C110.508 13.8104 111.399 14.9686 111.627 16.4097C111.899 18.1391 111.143 19.9081 109.749 20.8099C108.848 21.3943 107.962 21.6111 107.153 21.6111ZM104.477 18.8769C104.686 18.8769 104.897 18.9562 105.064 19.1122C105.236 19.2735 106.846 20.6671 108.829 19.3872C109.67 18.8425 110.122 17.753 109.95 16.6741C109.853 16.0448 109.451 14.9236 107.869 14.5005C107.602 14.4291 107.385 14.2308 107.29 13.9717C107.198 13.7099 107.235 13.419 107.396 13.1942C107.758 12.6786 107.285 11.3406 106.283 10.6266C105.185 9.84388 104.067 10.1797 103.051 11.5971C102.795 11.9514 102.314 12.0545 101.935 11.835C100.613 11.0629 99.4022 10.9175 98.5243 11.4305C97.8024 11.8509 97.3449 12.6997 97.3555 13.5909C97.3634 14.051 97.5062 14.8972 98.3973 15.389C98.712 15.5609 98.8839 15.9126 98.8257 16.2669C98.8151 16.3515 98.5243 18.43 100.341 19.2418C102.671 20.281 103.829 19.1836 103.876 19.136C104.04 18.9615 104.257 18.8769 104.477 18.8769Z" fill="#92140C"/>
<path d="M79.2898 7.42954C79.2898 7.42954 75.1568 12.1787 80.5353 13.4877C84.0549 14.3418 86.1175 9.96809 86.1175 9.96809C86.1175 9.96809 89.7296 11.5362 90.9195 8.94474C92.4612 5.59174 89.1505 4.90422 89.1505 4.90422C89.1505 4.90422 90.3484 2.23875 87.6591 1.0779C85.1364 -0.011562 83.2087 3.07435 83.2087 3.07435C83.2087 3.07435 81.2651 1.69402 79.6309 2.50583C78.084 3.27797 76.8095 6.42206 79.2898 7.42954Z" fill="#F8BE52"/>
<path d="M81.4662 14.4503C81.1066 14.4503 80.7284 14.408 80.3344 14.3101C78.5601 13.8791 77.4627 13.0409 77.074 11.8165C76.5821 10.2723 77.4151 8.62485 78.0524 7.66761C77.4362 7.14403 77.0793 6.4142 77.0475 5.56802C76.9894 4.07134 77.9598 2.3922 79.2529 1.74698C80.6359 1.05946 82.1167 1.54601 82.9734 1.96382C83.9941 0.747431 85.8743 -0.617037 87.9976 0.300541C89.0078 0.736853 89.6926 1.40322 90.0338 2.28378C90.3326 3.05328 90.2956 3.81484 90.1898 4.37543C90.7504 4.63986 91.4458 5.11055 91.8557 5.92236C92.337 6.87696 92.2814 8.01401 91.6918 9.3018C90.6472 11.5733 88.151 11.4939 86.5115 11.01C85.7949 12.1815 84.0708 14.4503 81.4662 14.4503ZM79.9298 7.98493C79.4962 8.48999 78.33 10.185 78.6896 11.3035C78.888 11.9223 79.5755 12.3798 80.7337 12.6627C83.534 13.3423 85.3348 9.64027 85.3533 9.60325C85.549 9.19073 86.0356 9.00828 86.456 9.18809C86.5697 9.23833 89.3224 10.3939 90.1501 8.59047C90.5124 7.80247 90.5785 7.16254 90.3458 6.69185C89.9835 5.96467 88.984 5.73461 88.9734 5.73197C88.7248 5.67908 88.5106 5.51249 88.3969 5.28508C88.2806 5.05767 88.2726 4.78795 88.3784 4.55525C88.3784 4.5526 88.7566 3.66411 88.4498 2.88668C88.2726 2.44508 87.9051 2.10925 87.3233 1.85804C85.5067 1.07268 83.9889 3.42612 83.9254 3.52661C83.8011 3.72229 83.6001 3.85979 83.3727 3.90474C83.1453 3.9497 82.9073 3.9021 82.7169 3.76724C82.7037 3.75666 81.1409 2.70158 80.0092 3.26482C79.3825 3.57949 78.7055 4.6002 78.7399 5.50191C78.761 6.04929 79.0361 6.41156 79.6099 6.64426C79.8637 6.74738 80.0515 6.96686 80.1149 7.23394C80.1784 7.49837 80.1096 7.77867 79.9298 7.98493Z" fill="#92140C"/>
<mask id="mask0_115_7657" style="mask-type:luminance" maskUnits="userSpaceOnUse" x="0" y="88" width="25" height="34">
<path d="M0 88.7158H24.1558V121.886H0V88.7158Z" fill="white"/>
</mask>
<g mask="url(#mask0_115_7657)">
<path d="M6.80952 121.669C5.61958 121.669 4.42964 121.344 3.3534 120.696C1.27232 119.445 0.0189153 117.155 0.0823789 114.723C0.256903 108.263 3.73154 98.6215 19.3066 89.3584C20.8165 88.462 22.768 88.9591 23.6644 90.469C24.5608 91.9789 24.0637 93.9331 22.5538 94.8295C9.4697 102.609 6.56889 110.034 6.43932 114.895C6.43667 114.958 6.43138 115.127 6.62706 115.244C6.80688 115.352 6.93645 115.278 6.99462 115.246C8.52039 114.379 10.4613 114.913 11.326 116.442C12.1933 117.97 11.6566 119.911 10.1308 120.778C9.08628 121.373 7.94658 121.669 6.80952 121.669Z" fill="#92140C"/>
</g>
<path d="M127.781 45.6187C127.781 45.6187 132.086 41.6337 129.272 38.4552C128.022 37.0432 126.858 36.6016 125.866 36.6254C126.551 34.227 125.533 31.2944 122.262 30.4165C124.145 27.7405 118.658 20.7965 114.319 26.8361C110.558 24.6413 107.856 25.9291 106.753 28.0234C106.56 27.6294 106.285 27.2222 105.912 26.8097C103.157 23.7819 98.667 26.0269 98.667 26.0269C98.667 26.0269 96.8583 23.7105 94.1399 23.8136C93.6719 23.8295 93.2091 23.9617 92.786 24.1812C92.712 23.9908 92.6327 23.7925 92.5428 23.5889C90.4643 18.8423 85.099 22.465 85.099 22.465C85.099 22.465 82.7482 17.343 79.0118 18.9666C77.3617 19.6806 76.6107 20.6034 76.3331 21.5104C75.5742 21.402 74.6725 21.41 73.6042 21.5686C73.583 21.5316 73.5618 21.4946 73.538 21.4576C71.3406 18.1442 68.7042 18.8053 68.7042 18.8053C68.7042 18.8053 67.7999 15.2302 63.9683 15.2619C61.0992 15.2857 58.6823 18.5673 60.1922 21.5422C58.5659 20.651 56.4425 20.7991 54.536 23.4514C53.7533 22.9913 53.0129 22.6872 52.3253 22.5074C52.6242 21.6215 52.6109 20.4659 51.503 19.2469C49.2817 16.8062 45.659 18.6176 45.659 18.6176C45.659 18.6176 44.202 16.7507 42.0099 16.83C39.9341 16.9067 38.0487 19.7361 40.2646 22.071C40.2646 22.071 33.2254 24.8449 36.7847 28.5919C36.2347 28.7717 35.7296 29.1023 35.3197 29.5386C34.6454 26.614 30.5097 23.3112 27.0933 28.0684C19.8346 23.8348 16.516 32.569 21.0272 35.0494C21.0272 35.0494 20.8897 35.9061 21.0986 36.9744C24.1184 35.6099 28.9337 34.7241 35.0394 34.3433C35.3145 34.3275 35.5921 34.3116 35.8698 34.2957C36.0337 34.2878 36.1977 34.2799 36.3616 34.2719C36.4965 34.264 36.6313 34.2587 36.7688 34.2534C36.9196 34.2455 37.0729 34.2402 37.2263 34.2323C37.3823 34.227 37.541 34.2217 37.6996 34.2137C37.8504 34.2085 37.9984 34.2032 38.1492 34.2005C38.4083 34.1926 38.6674 34.182 38.9292 34.1767C39.1646 34.1688 39.4052 34.1635 39.6432 34.1582C39.8865 34.1556 40.1271 34.1503 40.3704 34.1476C40.5052 34.145 40.6375 34.145 40.7723 34.1424C42.1236 34.1265 43.5224 34.1318 44.9609 34.1582C45.2624 34.1635 45.5665 34.1688 45.8732 34.1794C46.4179 34.1899 46.9706 34.2058 47.5286 34.2243C47.83 34.2349 48.1341 34.2455 48.4382 34.2587C48.7423 34.2693 49.049 34.2825 49.3558 34.2984C49.8027 34.3169 50.2548 34.338 50.707 34.3618C51.3866 34.3962 52.0715 34.4359 52.7617 34.4782C53.0234 34.494 53.2826 34.5099 53.5444 34.5284C54.5809 34.5972 55.6334 34.6739 56.6964 34.7611C56.9979 34.7849 57.2993 34.8114 57.6008 34.8378C57.9445 34.8669 58.2909 34.8986 58.6347 34.9304C59.7189 35.0282 60.8162 35.134 61.9242 35.253C62.4822 35.3085 63.0428 35.372 63.6086 35.4354C63.9524 35.4751 64.2988 35.5121 64.6452 35.5544C64.9308 35.5888 65.3407 35.6364 65.7003 35.6813C68.6302 36.0357 71.6262 36.4561 74.6751 36.94C74.7703 36.9559 74.8655 36.9691 74.9607 36.985C76.5235 37.2336 78.0704 37.4953 79.5988 37.7677C81.2806 38.0692 82.9386 38.3838 84.5701 38.7091C86.1673 39.0264 87.7354 39.3596 89.2744 39.7007C90.3956 39.9493 91.3819 40.1899 92.5137 40.4438C94.9068 41.0123 97.2258 41.602 99.4471 42.2128C100.206 42.4217 100.952 42.6333 101.687 42.8448C105.923 44.0691 109.778 45.3622 113.166 46.687C113.393 46.7743 113.618 46.8642 113.84 46.9541C114.044 47.0334 114.245 47.1154 114.446 47.1973C117.373 48.3899 119.911 49.601 121.993 50.8095C124.806 52.4384 126.784 54.0593 127.76 55.5957C127.945 55.8892 128.096 56.1827 128.209 56.471C128.542 56.1695 128.881 55.7967 129.222 55.3471C132.501 51.058 127.781 45.6187 127.781 45.6187Z" fill="#F8BE52"/>
<path d="M128.908 45.6821C130.524 43.8919 132.293 40.5838 129.905 37.8919C128.943 36.8025 127.927 36.1308 126.875 35.8849C126.941 35.3507 126.933 34.7981 126.846 34.2507C126.536 32.278 125.272 30.7126 123.4 29.9114C123.839 28.0815 122.647 25.7519 120.93 24.5276C119.13 23.2477 116.446 22.9542 114.092 25.7466C111.08 24.2446 108.989 24.9533 107.976 25.543C107.529 25.8048 107.127 26.1379 106.781 26.5214C106.707 26.4262 106.622 26.331 106.537 26.2384C103.996 23.4407 100.318 24.4588 98.8848 25.0088C98.1153 24.2446 96.4097 22.8801 94.1092 22.9621C93.8183 22.9727 93.53 23.0177 93.2471 23.0943C92.6098 21.7166 91.6473 20.8387 90.3939 20.4738C88.5323 19.9344 86.5253 20.7303 85.4358 21.2883C84.2459 19.2918 81.7866 16.8352 78.6743 18.1838C77.2754 18.7947 76.3103 19.6038 75.7893 20.6034C75.2367 20.569 74.647 20.5902 74.015 20.6563C72.2988 18.287 70.35 17.9035 69.2896 17.9035C68.655 16.4148 67.0314 14.4104 64.0195 14.4104H63.9639C62.0019 14.4289 60.127 15.7167 59.3047 17.618C58.9345 18.4721 58.8102 19.3658 58.9186 20.2385C57.4589 20.0481 55.8168 20.5717 54.3095 22.3592C53.9658 22.1873 53.6352 22.0472 53.3179 21.9308C53.3259 21.8647 53.3311 21.7986 53.3338 21.7299C53.3946 20.6431 52.99 19.6171 52.1306 18.6757C50.0707 16.4095 47.1302 17.1446 45.8768 17.6047C45.2025 16.9595 43.8143 15.9124 41.9817 15.9811C40.5829 16.0314 39.266 16.9965 38.7028 18.3822C38.248 19.4981 38.3458 20.6774 38.9593 21.7352C37.5737 22.4412 35.2678 23.9088 34.9637 26.0004C34.9161 26.331 34.9188 26.6589 34.9743 26.9841C34.6067 26.5134 34.1757 26.093 33.705 25.7598C31.9069 24.4773 29.2203 24.1864 26.8668 26.9788C23.8549 25.4742 21.7633 26.1829 20.7505 26.7752C19.1322 27.7192 18.1036 29.5941 18.1274 31.5456C18.1485 33.1824 18.8704 34.5892 20.1344 35.4856C20.108 36.0277 20.1503 36.6835 20.3169 37.3604C20.7875 37.1039 21.3138 36.8659 21.8982 36.6412C21.7686 35.8558 21.8585 35.237 21.8664 35.1815C21.922 34.8272 21.7501 34.4755 21.438 34.3009C20.4279 33.7456 19.8382 32.7329 19.8224 31.5244C19.8065 30.1732 20.5046 28.8827 21.6046 28.2402C22.9268 27.468 24.7249 27.6664 26.6685 28.8008C27.044 29.0202 27.5279 28.9171 27.7818 28.5628C29.8232 25.7175 31.7535 26.4526 32.7213 27.1428C33.4988 27.6954 34.0937 28.5258 34.3846 29.3243C34.0567 29.7501 33.7976 30.2393 33.631 30.7708C33.2396 32.0189 33.4009 33.2855 34.0647 34.4067C34.7284 34.3591 35.408 34.3168 36.1061 34.2824C35.5137 33.6848 35.2493 33.0951 35.1594 32.5716C35.0669 32.0453 35.1515 31.5932 35.2493 31.2811C35.4318 30.7047 35.7861 30.1996 36.233 29.8426C36.352 29.7474 36.4763 29.6628 36.6058 29.5888C36.8782 29.4354 37.1717 29.3323 37.4705 29.2979C39.6918 29.0361 41.4238 30.8554 41.4397 30.8713C41.4846 30.9189 41.5322 30.9612 41.5851 30.9956C41.8522 31.1807 42.2144 31.1939 42.5 31.022C42.6058 30.9585 44.3801 29.914 46.284 30.0489C46.4348 30.0595 46.5855 30.078 46.7362 30.1018C47.3999 30.2155 48.0663 30.4905 48.6666 31.0194C48.7009 31.0484 48.7327 31.0775 48.7671 31.1093C48.968 31.2997 49.1452 31.49 49.2959 31.6857C49.7164 32.2331 49.9411 32.8122 49.9596 33.4125C49.9623 33.4997 49.9596 33.5843 49.957 33.669C49.9438 33.8937 49.9041 34.1132 49.8433 34.3168C50.0733 34.3274 50.3034 34.338 50.5335 34.3512C50.8746 34.3671 51.2183 34.3882 51.5647 34.4067C51.6309 34.0815 51.6652 33.7404 51.652 33.3807C51.6282 32.4473 51.3162 31.5694 50.7212 30.7629C50.4991 30.4561 50.232 30.1573 49.9253 29.8691C49.7217 29.6813 49.518 29.5121 49.3091 29.3667C48.7935 28.9991 48.262 28.7505 47.7278 28.5866C47.4343 28.1027 47.273 27.5315 47.2651 26.9074C47.2492 25.5536 47.9473 24.2658 49.05 23.6232C49.6238 23.2874 50.2875 23.134 51.0147 23.1657C51.57 23.1869 52.165 23.3138 52.7838 23.5465C53.2148 23.7078 53.659 23.9194 54.1112 24.1811C54.4867 24.4033 54.9706 24.3001 55.2271 23.9458C56.9116 21.5977 58.5219 21.6876 59.577 22.1794C59.7991 22.2825 59.9975 22.4042 60.1667 22.5232C60.5634 22.8061 60.9124 23.1604 61.198 23.5465C61.9675 24.5884 62.2716 25.8524 61.785 26.5399C61.6264 26.7673 61.5867 27.0582 61.6819 27.3173C61.7771 27.5791 61.9913 27.7774 62.2584 27.8488C62.9036 28.0207 63.4668 28.2931 63.9322 28.6553C64.588 29.1578 65.0534 29.8373 65.2782 30.6412C65.3046 30.7258 65.3258 30.8105 65.3443 30.9004C65.3628 30.9744 65.3734 31.0511 65.3866 31.1278C65.5849 32.3732 65.2253 33.6319 64.469 34.5231C64.2442 34.7928 63.9798 35.0281 63.6863 35.2185C63.5779 35.2846 63.4747 35.3481 63.3716 35.4063C63.8264 35.4565 64.2865 35.5094 64.7467 35.5623C65.0666 35.602 65.3866 35.639 65.7092 35.6813C66.0424 35.7209 66.3808 35.7606 66.7193 35.8056C66.5501 35.5332 66.4099 35.2185 66.2989 34.8615C66.7193 34.1529 66.9917 33.3464 67.0895 32.5081C67.1451 32.0612 67.1503 31.609 67.1001 31.1516C67.2508 31.0194 67.4121 30.8951 67.5787 30.7814C68.8321 29.9246 70.4108 29.6364 70.5245 29.6152C70.7704 29.5729 70.9846 29.4275 71.1115 29.2133C71.2385 28.9965 71.2649 28.7373 71.1829 28.502C70.9079 27.7034 70.3843 25.2997 71.2808 23.8083C71.6668 23.1631 72.283 22.7374 73.1503 22.5205C73.3037 22.4782 73.465 22.4465 73.6369 22.4174C74.0705 22.3513 74.483 22.3063 74.8691 22.2931C75.0357 22.2852 75.197 22.2825 75.353 22.2852C75.9903 22.2905 76.5562 22.3751 77.048 22.5364C77.5901 22.7136 78.0423 22.9833 78.3993 23.3482C79.8034 24.7735 79.3962 27.2803 79.3909 27.3173C79.3777 27.3966 79.375 27.476 79.383 27.5553C79.1926 27.7642 79.026 27.9916 78.8779 28.2375C78.1322 29.4751 78.0582 30.9691 78.1745 32.1749C78.2247 32.6615 78.3041 33.1004 78.3834 33.4574C78.1057 33.5341 77.8149 33.6293 77.5214 33.7456C76.0696 34.3009 74.5174 35.282 73.8008 36.7998C74.1842 36.8606 74.5729 36.9215 74.9617 36.9823C75.1706 37.0167 75.3821 37.051 75.5884 37.0854C76.7043 35.4724 79.3274 34.9647 79.5628 34.925C79.5681 34.9224 79.5733 34.9224 79.5733 34.9224C79.7955 34.8827 79.9938 34.7558 80.1207 34.5733C80.1366 34.5548 80.1498 34.5363 80.1604 34.5178C80.2212 34.412 80.2582 34.2983 80.2714 34.182C80.2873 34.0603 80.2741 33.9281 80.2318 33.8091C80.2265 33.7985 80.044 33.2459 79.925 32.4817C79.769 31.4821 79.7241 30.1176 80.3349 29.1075C80.557 28.7347 80.8585 28.4359 81.2366 28.2084C81.6306 27.9731 82.1119 27.8144 82.6857 27.7245C83.241 27.6373 83.7567 27.5923 84.2326 27.5897C85.6606 27.5765 86.7394 27.9334 87.4481 28.65C87.9717 29.1842 88.2441 29.8664 88.3789 30.5116C88.4318 30.7734 88.4635 31.0299 88.482 31.2679C88.5376 32.0268 88.4424 32.6086 88.4397 32.6218C88.3974 32.8757 88.4688 33.1322 88.6381 33.3252C88.6486 33.3411 88.6672 33.3596 88.6804 33.3728C88.8813 33.5685 89.1643 33.6531 89.4393 33.6002C89.6588 33.5579 89.865 33.5315 90.0581 33.5182C91.2982 33.4521 92.0439 33.9889 92.4485 34.457C91.9963 35.0942 91.6658 35.7421 91.4437 36.2366C90.8011 35.9907 90.0448 35.7844 89.2595 35.6866C88.6037 35.5993 87.9215 35.594 87.263 35.7024C86.6839 35.7976 86.1207 35.9827 85.605 36.2895C85.1687 36.5486 84.7641 36.895 84.4177 37.3419C84.2406 37.564 84.0819 37.81 83.9365 38.085C83.8571 38.2383 83.7831 38.3891 83.7117 38.5371C84.2882 38.6482 84.862 38.7646 85.4332 38.8809C85.4358 38.8809 85.4358 38.8783 85.4358 38.8783C85.65 38.4684 85.9197 38.1564 86.2238 37.9237C86.7051 37.5482 87.2762 37.3763 87.8606 37.3208C87.9981 37.3102 88.1356 37.3022 88.2731 37.3022C89.8597 37.3022 91.4225 38.0691 91.5309 38.122C91.7531 38.233 92.0149 38.241 92.2449 38.1458C92.4723 38.0479 92.6495 37.8549 92.7235 37.6169C92.8002 37.3631 92.9536 36.9691 93.1784 36.5275C93.4904 35.9034 93.9426 35.1815 94.5217 34.6262C94.839 34.3195 95.1986 34.063 95.59 33.899C96.4097 33.5605 97.2982 33.6531 98.3083 34.182C100.297 35.2265 101.397 36.4296 101.587 37.7624C101.656 38.2542 101.598 38.7328 101.468 39.1744C101.431 39.304 101.389 39.4309 101.341 39.5499C100.897 39.772 100.461 40.0391 100.062 40.3485C99.4771 40.7927 98.9668 41.3348 98.6098 41.9827C99.0011 42.0858 99.3925 42.1942 99.7786 42.3027C99.9584 42.3502 100.136 42.4005 100.313 42.4507C100.736 41.8716 101.355 41.4406 101.976 41.1206C102.193 41.0096 102.41 40.9144 102.619 40.8298C103.465 40.4913 104.187 40.3591 104.261 40.3459C104.507 40.3035 104.718 40.1555 104.848 39.9413C104.972 39.7297 104.998 39.4706 104.919 39.2352C104.916 39.2273 104.882 39.1242 104.832 38.947C104.618 38.1696 104.142 35.9854 105.02 34.5336C105.149 34.3168 105.305 34.1264 105.488 33.9625C105.749 33.7192 106.064 33.5288 106.434 33.3887C106.633 33.312 106.847 33.2512 107.08 33.2009C107.172 33.1798 107.27 33.1612 107.37 33.148C107.799 33.0793 108.201 33.0396 108.581 33.0237C110.179 32.9497 111.371 33.3014 112.13 34.0762C113.537 35.5041 113.132 38.0083 113.124 38.0479C113.077 38.3203 113.167 38.6033 113.368 38.7989C113.566 38.9946 113.849 39.0792 114.124 39.0237C114.415 38.9682 114.682 38.9417 114.928 38.9391C115.023 38.9391 115.113 38.9417 115.2 38.947H115.203C115.811 38.9893 116.279 39.1903 116.628 39.4309C116.858 39.5896 117.041 39.7668 117.178 39.9333C117.226 39.9915 117.271 40.0497 117.308 40.1052C117.948 41.0016 118.048 42.2233 117.551 43.0721C117.535 43.1039 117.517 43.133 117.498 43.1594C116.993 43.2017 116.522 43.2943 116.083 43.4344C115.512 43.6116 114.994 43.8654 114.526 44.1722C113.624 44.7592 112.908 45.5419 112.334 46.3643C112.574 46.4569 112.812 46.5468 113.048 46.6393C113.251 46.716 113.452 46.7953 113.653 46.8747C113.767 46.9196 113.881 46.9646 113.992 47.0122C114.658 46.1475 115.525 45.3991 116.644 45.0448C117.07 44.9152 117.53 44.8386 118.03 44.8333C118.141 44.8333 118.249 44.8333 118.352 44.8386C119.928 44.8756 120.967 45.3145 121.443 46.1316C122.073 47.2211 121.753 48.932 121.248 50.3863C121.774 50.6746 122.274 50.9654 122.747 51.2537C123.408 49.4925 123.948 47.073 122.908 45.2828C122.239 44.1219 121.044 43.4265 119.341 43.2097C119.587 42.4798 119.624 41.6759 119.463 40.8959C119.333 40.2718 119.074 39.661 118.691 39.1189C118.455 38.7884 118.186 38.4975 117.887 38.2542C117.892 38.2516 117.897 38.2489 117.903 38.2436C118.445 37.9078 119 37.7544 119.561 37.7756C120.981 37.8338 122.07 38.9999 122.075 39.0105C122.139 39.0766 122.208 39.1321 122.284 39.1771H122.287C122.427 39.259 122.586 39.2961 122.752 39.2881C123.009 39.2749 123.244 39.1453 123.395 38.9364C123.406 38.9232 124.421 37.5429 125.836 37.4741C126.037 37.4636 126.24 37.4821 126.447 37.527C127.168 37.683 127.901 38.1828 128.639 39.0158C130.868 41.5332 127.356 44.8571 127.208 44.9972C126.872 45.3066 126.843 45.8275 127.142 46.1739C127.184 46.2242 131.368 51.1479 128.554 54.8288C128.305 55.154 128.06 55.437 127.816 55.6802C128.173 56.2646 128.382 56.8332 128.44 57.3885C128.937 56.9918 129.424 56.4815 129.897 55.8601C132.901 51.9306 130.114 47.3321 128.908 45.6821ZM48.1959 22.1582C46.5776 23.1023 45.5463 24.9771 45.5701 26.9286C45.5727 27.082 45.5807 27.2327 45.5965 27.3808C45.6256 27.714 45.6864 28.0366 45.779 28.3433C44.2691 28.3883 42.9284 28.9145 42.1986 29.2688C42.143 29.2212 42.0875 29.1736 42.024 29.1234C41.1303 28.4147 39.4088 27.3623 37.2722 27.6161C37.2114 27.6214 37.1506 27.6346 37.0898 27.6426C36.7275 27.1613 36.5768 26.6933 36.6429 26.2464C36.8703 24.6651 39.6283 23.2345 40.5776 22.859C40.842 22.7559 41.0324 22.5285 41.0959 22.2534C41.1567 21.9784 41.0774 21.6902 40.8817 21.4839C39.9007 20.4527 40.0778 19.4981 40.2735 19.0221C40.5855 18.2579 41.3127 17.7026 42.0426 17.6761C43.764 17.618 44.983 19.1252 44.9936 19.1384C45.2395 19.4531 45.6785 19.5536 46.0381 19.3764C46.165 19.313 49.1214 17.885 50.8799 19.8154C51.3902 20.3786 51.6414 20.9339 51.6467 21.513C50.0416 21.3094 48.8755 21.7616 48.1959 22.1582ZM69.829 22.9304C68.7845 24.6677 69.0622 26.918 69.3372 28.1529C68.4699 28.3988 67.4888 28.8034 66.6241 29.3984C66.045 28.1212 64.9952 27.1163 63.6175 26.5267C64.0565 24.6968 62.8666 22.3645 61.1504 21.1402C61.0526 21.0714 60.9494 21.0053 60.8489 20.9392C60.484 20.0851 60.4814 19.1675 60.8595 18.2949C61.4201 16.9965 62.6735 16.1186 63.9772 16.1081H64.0168C67.0816 16.1081 67.8537 18.8978 67.8855 19.0115C67.9992 19.4663 68.4593 19.7413 68.9115 19.6276C68.93 19.6197 70.5192 19.2521 72.156 21.0529C71.138 21.4231 70.3579 22.0525 69.829 22.9304ZM90.0237 30.1044C89.828 29.2133 89.434 28.256 88.6671 27.4707C87.3185 26.093 85.219 25.6144 82.4266 26.048C81.9638 26.1168 81.5381 26.2279 81.1467 26.3786C81.1361 25.2124 80.8796 23.4566 79.6183 22.1662C79.0709 21.6056 78.3993 21.1957 77.606 20.9339C77.9894 20.4791 78.5738 20.0798 79.3486 19.7413C82.2785 18.4721 84.2485 22.6422 84.3305 22.8167C84.4336 23.0414 84.6319 23.2107 84.8699 23.2794C85.1079 23.3482 85.3644 23.3059 85.5733 23.1657C85.5971 23.1499 88.0193 21.5474 89.9285 22.1054C90.7086 22.3328 91.3009 22.9066 91.7319 23.848C91.0814 24.3451 90.5499 25.0194 90.2273 25.8153C89.6746 27.1666 89.8121 28.5919 90.579 29.8691C90.3912 29.9616 90.2035 30.041 90.0237 30.1044ZM106.286 29.7739C106.247 30.5513 105.876 31.2256 105.546 31.6778C105.427 31.8444 105.31 31.9819 105.218 32.085C104.522 32.4605 103.965 32.9867 103.56 33.6637C103.102 34.4279 102.899 35.2899 102.835 36.1229C102.206 34.8113 100.955 33.6584 99.0937 32.6826C97.6314 31.9158 96.2352 31.7968 94.9395 32.3336C94.4344 32.5425 93.9822 32.8386 93.5856 33.185C92.8399 32.405 91.8615 31.9449 90.7562 31.8417C91.3617 31.5033 91.9144 31.2468 92.2899 31.0987C92.5517 30.9956 92.7447 30.7681 92.8081 30.4931C92.8187 30.4402 92.824 30.3874 92.8267 30.3318C92.8319 30.1097 92.75 29.8902 92.594 29.7263C92.2925 29.409 92.073 29.0943 91.9197 28.7928C91.4093 27.8012 91.5971 26.9418 91.7954 26.4553C91.9276 26.1327 92.1153 25.8418 92.3375 25.5879C92.75 25.1252 93.2921 24.7999 93.8553 24.6994C93.9611 24.6756 94.0642 24.6651 94.1726 24.6598C96.4071 24.5804 97.9857 26.5293 97.9989 26.5478C98.2475 26.8651 98.6865 26.9656 99.0461 26.7858C99.0858 26.7646 102.989 24.8555 105.284 27.3781C105.488 27.6029 105.662 27.8303 105.802 28.0604C106.154 28.621 106.315 29.1948 106.286 29.7739ZM125.175 35.8532C124.056 36.07 123.183 36.7284 122.639 37.2494C121.991 36.7549 120.936 36.1387 119.648 36.0806C118.424 36.0277 117.268 36.4719 116.2 37.4027C115.782 37.289 115.34 37.2388 114.88 37.2441C114.888 36.0832 114.661 34.2401 113.349 32.8968C112.088 31.6037 110.165 31.104 107.63 31.4028C107.812 30.9506 107.947 30.435 107.979 29.877C108.01 29.2635 107.92 28.6659 107.704 28.0868C107.997 27.6452 108.381 27.2724 108.83 27.0079C110.155 26.2358 111.95 26.4368 113.894 27.5685C114.272 27.788 114.753 27.6849 115.007 27.3305C117.049 24.4879 118.979 25.2204 119.947 25.9105C121.417 26.955 122.234 28.9832 121.568 29.9299C121.409 30.1547 121.369 30.4455 121.465 30.7047C121.557 30.9665 121.774 31.1648 122.041 31.2362C123.776 31.6989 124.915 32.8968 125.172 34.5151C125.241 34.9673 125.241 35.4195 125.175 35.8532Z" fill="#92140C"/>
<path d="M127.761 55.5932C123.67 49.1357 101.902 41.2848 74.9616 36.9825C48.024 32.6828 24.8968 33.3677 19 38.2306C18.1961 38.8917 17.7122 39.6321 17.5826 40.4465C17.453 41.2636 17.6831 42.1151 18.241 42.9956L13.0317 133.582C13.275 132.051 15.4381 130.917 19.0502 130.197C24.6773 129.079 33.8161 128.97 44.6816 129.935C49.4546 130.359 54.5581 130.991 59.8441 131.834C60.3756 131.921 60.9071 132.009 61.4359 132.093C70.773 133.651 79.3036 135.652 86.2238 137.802C92.0492 139.614 96.7349 141.531 99.797 143.374C102.568 145.042 104.015 146.653 103.79 148.073L127.002 60.3582C127.806 59.6945 128.29 58.9567 128.419 58.1423C128.549 57.3252 128.321 56.4737 127.761 55.5932Z" fill="#F9F1E4"/>
<path d="M50.7098 34.3591C50.6279 34.7108 50.5062 35.0308 50.3714 35.3137C49.9509 35.0123 49.6177 34.6632 49.356 34.2957C49.8028 34.3142 50.255 34.3353 50.7098 34.3591Z" fill="#F9F1E4"/>
<path d="M59.8383 131.829C61.3244 132.067 62.8052 132.318 64.2808 132.582C65.7536 132.847 67.2159 133.124 68.665 133.415C70.1141 133.706 71.542 134.008 72.9515 134.32C74.3582 134.632 75.7412 134.954 77.0951 135.287C78.4516 135.618 79.7738 135.959 81.0616 136.305C82.3494 136.655 83.6001 137.009 84.8086 137.368C86.0197 137.731 87.1832 138.096 88.3017 138.466C89.4229 138.836 90.4912 139.209 91.5066 139.584C92.5247 139.963 93.4872 140.338 94.3942 140.716C95.3012 141.094 96.1474 141.472 96.9354 141.848C97.7208 142.226 98.4427 142.599 99.1038 142.972C99.7622 143.345 100.355 143.71 100.881 144.074C101.404 144.437 101.862 144.794 102.248 145.143C102.634 145.494 102.949 145.838 103.195 146.174C103.438 146.507 103.61 146.832 103.708 147.15C103.808 147.467 103.832 147.771 103.787 148.067C103.739 148.361 103.62 148.644 103.427 148.914C103.234 149.183 102.97 149.44 102.634 149.683C102.298 149.924 101.891 150.151 101.415 150.365C100.939 150.579 100.394 150.775 99.7833 150.958C99.1699 151.137 98.4929 151.304 97.7525 151.452C97.0095 151.598 96.2056 151.73 95.3409 151.843C94.4762 151.955 93.556 152.05 92.5749 152.129C91.5965 152.206 90.5653 152.264 89.4811 152.304C88.3969 152.346 87.2651 152.367 86.0858 152.37C84.9091 152.375 83.6874 152.359 82.4261 152.325C81.1647 152.293 79.8664 152.24 78.5336 152.169C77.2009 152.1 75.8391 152.01 74.4481 151.904C73.0572 151.799 71.6425 151.674 70.2067 151.531C68.7708 151.391 67.3191 151.233 65.8541 151.058C64.3865 150.881 62.911 150.691 61.4275 150.484C59.9441 150.275 58.458 150.053 56.9719 149.818C55.4858 149.58 54.0049 149.329 52.5321 149.064C51.0565 148.8 49.5942 148.522 48.1478 148.231C46.6987 147.94 45.2681 147.639 43.8613 147.327C42.4519 147.015 41.0689 146.692 39.7151 146.359C38.3585 146.029 37.039 145.688 35.7486 145.341C34.4608 144.992 33.2127 144.638 32.0016 144.278C30.7931 143.916 29.627 143.551 28.5084 143.181C27.3899 142.81 26.3216 142.438 25.3035 142.062C24.2855 141.684 23.3229 141.309 22.4159 140.93C21.5089 140.552 20.6628 140.174 19.8774 139.796C19.0894 139.42 18.3675 139.048 17.7091 138.675C17.048 138.302 16.4556 137.937 15.9321 137.572C15.4059 137.21 14.9484 136.853 14.5623 136.504C14.1762 136.152 13.8616 135.808 13.6183 135.473C13.3724 135.139 13.2031 134.811 13.1027 134.497C13.0048 134.179 12.9784 133.875 13.026 133.579C13.0709 133.286 13.1926 133.003 13.3829 132.733C13.576 132.463 13.8404 132.207 14.1762 131.964C14.5121 131.723 14.9193 131.493 15.3953 131.281C15.8713 131.067 16.416 130.871 17.0268 130.689C17.6403 130.509 18.3172 130.343 19.0603 130.194C19.8007 130.049 20.6046 129.917 21.4693 129.803C22.334 129.692 23.2568 129.597 24.2352 129.518C25.2136 129.441 26.2449 129.383 27.3291 129.343C28.4132 129.301 29.545 129.28 30.7244 129.277C31.9037 129.272 33.1228 129.287 34.3841 129.322C35.6481 129.354 36.9438 129.406 38.2765 129.478C39.6093 129.547 40.9711 129.637 42.3647 129.742C43.7556 129.848 45.1676 129.972 46.6035 130.115C48.0394 130.255 49.4911 130.414 50.9587 130.588C52.4263 130.766 53.8992 130.956 55.3853 131.162C56.8687 131.371 58.3522 131.593 59.8383 131.829Z" fill="#E46750"/>
<path d="M44.6812 129.935C33.8157 128.97 24.6769 129.079 19.0498 130.197L29.5848 39.5315C36.2432 38.7197 45.1016 38.6774 55.1923 39.468L44.6812 129.935Z" fill="#E46750"/>
<path d="M104.342 48.6386L86.2234 137.802C79.3032 135.652 70.7726 133.651 61.4355 132.093L79.6046 42.673C88.7672 44.3362 97.192 46.3962 104.342 48.6386Z" fill="#E46750"/>
<path d="M127.001 60.3584L103.789 148.073C104.014 146.653 102.567 145.043 99.7959 143.374L122.825 56.5505C124.801 57.8489 126.223 59.1287 127.001 60.3584Z" fill="#E46750"/>
<path d="M128.477 55.1383C125.791 50.8969 117.062 47.1102 110.213 44.6801C100.543 41.2478 88.0695 38.2174 75.0965 36.1469C62.1235 34.0737 49.3277 33.0715 39.0704 33.3227C31.8064 33.4999 22.3345 34.3831 18.4632 37.5748C17.4848 38.3787 16.9083 39.2989 16.747 40.3143C16.5989 41.2478 16.8131 42.2182 17.3817 43.2019L12.1856 133.526C11.8022 136.433 16.1177 139.571 25.0132 142.861C33.3639 145.947 44.6684 148.715 56.8428 150.659C67.3434 152.335 77.4182 153.227 85.7002 153.227C87.0197 153.227 88.2943 153.203 89.516 153.158C98.9906 152.804 104.065 151.164 104.61 148.284L127.755 60.8236C128.602 60.0647 129.107 59.208 129.257 58.2745C129.419 57.2617 129.154 56.204 128.477 55.1383ZM18.4209 40.5814C18.5161 39.9891 18.8916 39.4179 19.5394 38.8837C22.271 36.6334 29.2203 35.261 39.1127 35.0177C49.2721 34.7692 61.9543 35.7661 74.8294 37.8207C87.7046 39.8754 100.069 42.8793 109.647 46.2799C118.971 49.5879 125.151 53.0573 127.047 56.0506C127.496 56.7567 127.676 57.4151 127.581 58.0074C127.525 58.3671 127.364 58.7188 127.1 59.0599C127.081 59.0361 127.057 59.0123 127.039 58.9885C126.986 58.9277 126.933 58.8642 126.878 58.8034C123.517 55.0114 115.703 51.6637 109.454 49.4451C109.319 49.3975 109.179 49.3499 109.042 49.3023C109.002 49.2865 108.962 49.2733 108.923 49.26C108.716 49.186 108.507 49.1146 108.299 49.0432C108.259 49.03 108.222 49.0168 108.185 49.0035C107.838 48.8845 107.487 48.7655 107.135 48.6492C107.019 48.6095 106.905 48.5725 106.789 48.5328C106.662 48.4905 106.532 48.4482 106.405 48.4059C106.223 48.3477 106.038 48.2869 105.853 48.2261C105.763 48.197 105.675 48.1706 105.585 48.1415C105.258 48.0357 104.93 47.9299 104.597 47.8268C104.456 47.7819 104.314 47.7395 104.173 47.6972C103.97 47.6338 103.766 47.5703 103.563 47.5095C103.317 47.4328 103.073 47.3588 102.827 47.2847C102.719 47.253 102.611 47.2213 102.505 47.1895C101.569 46.9119 100.617 46.6369 99.649 46.3671C99.6411 46.3645 99.6305 46.3619 99.6199 46.3566C94.7253 44.9895 89.4234 43.7334 83.9391 42.636C83.9365 42.636 83.9338 42.636 83.9312 42.6334C82.9105 42.4298 81.8818 42.2314 80.8506 42.0384C80.5861 41.9908 80.3243 41.9406 80.0599 41.893C79.9594 41.8745 79.8589 41.8559 79.7558 41.8374C79.6421 41.8163 79.5205 41.7951 79.4041 41.774C79.2428 41.7449 79.0815 41.7158 78.9176 41.6867C78.6505 41.6391 78.3834 41.5915 78.1137 41.5439C77.9524 41.5148 77.7884 41.4884 77.6271 41.4593C77.3865 41.417 77.1459 41.3773 76.9026 41.335C76.6117 41.2848 76.3182 41.2372 76.0247 41.1869C75.9083 41.1684 75.7893 41.1473 75.6703 41.1288C75.2261 41.0547 74.7818 40.9833 74.3376 40.9119C73.5628 40.7876 72.7907 40.6686 72.0212 40.5523C71.7065 40.5073 71.3945 40.4624 71.0825 40.4148C70.6514 40.354 70.2204 40.2905 69.7894 40.2297C69.3187 40.1609 68.8506 40.1001 68.38 40.034C68.1235 39.9996 67.867 39.9653 67.6105 39.9309C67.0472 39.8568 66.484 39.7854 65.9234 39.714C65.7753 39.6955 65.6272 39.677 65.4791 39.6585C64.8498 39.5818 64.2204 39.5078 63.5937 39.4338C63.5303 39.4258 63.4642 39.4179 63.4007 39.4126C60.648 39.0953 57.927 38.8308 55.2615 38.6219C47.2386 37.9926 39.9403 37.8815 33.8531 38.2861C33.7685 38.2914 33.6812 38.2967 33.5966 38.302C33.5146 38.3073 33.4353 38.3126 33.356 38.3205C28.3106 38.6775 23.0537 39.4708 19.6531 41.1261C19.632 41.134 19.6135 41.1446 19.5923 41.1552C19.4337 41.2319 19.2776 41.3139 19.1269 41.3958C19.1031 41.4091 19.0793 41.4223 19.0555 41.4355C18.8916 41.5254 18.7303 41.618 18.5769 41.7158C18.569 41.7211 18.561 41.7264 18.5531 41.729C18.4077 41.3244 18.3627 40.9384 18.4209 40.5814ZM19.0661 43.4293C19.0714 43.424 19.0793 43.4214 19.0846 43.4161C19.193 43.3368 19.3094 43.2601 19.4284 43.1834C19.4416 43.1755 19.4548 43.1675 19.468 43.157C21.4645 41.9062 24.9656 40.9489 29.6883 40.3725C30.9021 40.2244 32.1846 40.1028 33.5305 40.0076C33.6098 40.0023 33.6865 39.997 33.7659 39.9917C33.8848 39.9838 34.0065 39.9758 34.1255 39.9679C34.3212 39.9547 34.5195 39.9415 34.7178 39.9309C34.7522 39.9282 34.7866 39.9282 34.8236 39.9256C35.9527 39.8621 37.1294 39.8145 38.3537 39.7854C43.6873 39.6532 49.7217 39.8674 56.113 40.3963C56.2425 40.4069 56.3695 40.4174 56.499 40.428C57.1601 40.4862 57.8238 40.5444 58.4929 40.6078C58.5775 40.6158 58.6647 40.6237 58.7494 40.6316C59.4289 40.6951 60.1112 40.7638 60.7987 40.8352C60.9018 40.8458 61.005 40.8564 61.1081 40.867C61.7454 40.9331 62.3853 41.0045 63.0279 41.0785C63.2209 41.0997 63.4113 41.1208 63.6043 41.1446C64.1332 41.2054 64.6647 41.2689 65.1962 41.335C65.54 41.3773 65.8864 41.4196 66.2301 41.4619C66.595 41.5095 66.9626 41.5571 67.3302 41.6047C67.867 41.6761 68.4038 41.7475 68.9406 41.8242C69.1151 41.848 69.2896 41.8718 69.4668 41.8956C70.186 41.9987 70.9053 42.1019 71.6272 42.2103C71.6378 42.2103 71.6483 42.2129 71.6563 42.2129C72.4575 42.3346 73.264 42.4589 74.0679 42.5884C74.5095 42.6572 74.9511 42.7286 75.3874 42.8026C75.5196 42.8238 75.6492 42.8449 75.7788 42.8661C76.0591 42.9137 76.3367 42.9613 76.6144 43.0062C76.8497 43.0485 77.085 43.0882 77.3204 43.1279C77.4923 43.1596 77.6615 43.1887 77.8307 43.2178C78.082 43.2627 78.3332 43.305 78.5844 43.35C78.7721 43.3844 78.9572 43.4187 79.1423 43.4505C79.3327 43.4848 79.5231 43.5192 79.7109 43.5562C80.0097 43.6091 80.3058 43.6647 80.6046 43.7202C81.5804 43.9026 82.5509 44.0904 83.516 44.2834C83.5636 44.2914 83.6112 44.3019 83.6562 44.3099C89.0612 45.394 94.2625 46.6263 99.0725 47.967C99.1307 47.9828 99.1915 48.0013 99.2497 48.0172C100.151 48.2684 101.04 48.5249 101.915 48.7841C102.066 48.8317 102.219 48.8766 102.37 48.9216C102.589 48.9877 102.806 49.0538 103.023 49.1199C103.269 49.1939 103.515 49.2706 103.758 49.3447C103.904 49.3922 104.054 49.4372 104.2 49.4822C104.205 49.4848 104.213 49.4874 104.221 49.4901C104.493 49.5747 104.766 49.662 105.035 49.7466C105.139 49.781 105.242 49.8127 105.342 49.8471C105.517 49.9026 105.689 49.9581 105.863 50.0163C105.99 50.056 106.117 50.0983 106.244 50.1406C106.395 50.1908 106.543 50.2411 106.691 50.2887C106.95 50.3759 107.206 50.4632 107.46 50.5478C107.566 50.5848 107.672 50.6219 107.778 50.6562C107.936 50.7118 108.095 50.7673 108.254 50.8228C108.362 50.8598 108.473 50.8995 108.582 50.9365C108.732 50.9921 108.883 51.0449 109.034 51.0978C109.153 51.1401 109.269 51.1825 109.385 51.2248C109.615 51.3067 109.845 51.3914 110.073 51.4733C110.205 51.5209 110.335 51.5712 110.467 51.6188C110.602 51.669 110.734 51.7192 110.866 51.7695C110.975 51.8092 111.083 51.8488 111.191 51.8911C111.334 51.9467 111.48 51.9995 111.62 52.0551C111.702 52.0842 111.781 52.1159 111.86 52.1476C116.216 53.8347 119.78 55.5667 122.361 57.2617C123.855 58.2401 124.987 59.1868 125.746 60.0832C125.77 60.1097 125.793 60.1388 125.817 60.1678C125.894 60.263 125.968 60.3582 126.037 60.4508C126.053 60.4719 126.071 60.4931 126.084 60.5142L103.637 145.344C103.338 144.987 102.97 144.627 102.539 144.262C102.484 144.215 102.426 144.167 102.367 144.12C102.314 144.077 102.262 144.032 102.206 143.99C100.093 142.311 96.6213 140.576 91.806 138.797C91.761 138.781 91.7161 138.762 91.6737 138.746C91.6552 138.741 91.6394 138.736 91.6209 138.728C91.3379 138.625 91.0497 138.522 90.7615 138.418C90.7006 138.395 90.6372 138.374 90.5764 138.352C90.3093 138.257 90.0422 138.165 89.7698 138.072C89.7196 138.054 89.6667 138.035 89.6138 138.017C82.7888 135.679 74.3059 133.553 65.1248 131.879C65.019 131.858 64.9159 131.839 64.8128 131.821C64.3289 131.734 63.8423 131.646 63.3531 131.562C63.2209 131.538 63.0887 131.517 62.9565 131.493C62.6153 131.435 62.2742 131.377 61.9331 131.318C61.8115 131.297 61.6925 131.276 61.5735 131.258C61.4836 131.242 61.3963 131.229 61.3091 131.215C60.8648 131.141 60.4232 131.07 59.979 130.999C58.678 130.79 57.3875 130.597 56.105 130.414C56.0945 130.411 56.0812 130.409 56.0707 130.409C48.262 129.296 40.7892 128.634 34.2392 128.471C34.2075 128.471 34.1757 128.471 34.144 128.468C33.9113 128.463 33.6812 128.457 33.4538 128.452C32.6394 128.436 31.8408 128.428 31.0607 128.428C28.8025 128.428 26.7055 128.497 24.791 128.629C24.7355 128.634 24.6826 128.637 24.6271 128.642C24.4684 128.653 24.3098 128.666 24.1511 128.677C23.9581 128.693 23.7677 128.709 23.5799 128.724C23.572 128.727 23.5614 128.727 23.5509 128.727C20.4755 128.997 18.0163 129.441 16.1838 130.065C16.0992 130.094 16.0146 130.123 15.9326 130.152C15.9088 130.16 15.885 130.168 15.8612 130.179C15.1446 130.435 14.5337 130.723 14.026 131.038L19.0661 43.4293ZM89.4525 151.463C80.6628 151.791 69.1785 150.91 57.1099 148.985C45.0412 147.057 33.8505 144.318 25.6028 141.269C16.5963 137.942 13.6373 135.187 13.8674 133.72V133.717C13.87 133.714 13.87 133.712 13.87 133.709C13.8753 133.675 13.8832 133.64 13.8938 133.606C14.0578 133.043 14.9383 131.882 19.2168 131.03C20.0868 130.856 21.0414 130.708 22.0674 130.586C22.1282 130.578 22.1917 130.57 22.2525 130.565C22.3768 130.549 22.5011 130.536 22.6253 130.523C24.0136 130.374 25.587 130.261 27.3692 130.195C28.5724 130.15 29.8285 130.126 31.1295 130.126C32.5786 130.126 34.0858 130.155 35.6407 130.21C35.8813 130.218 36.1246 130.229 36.3679 130.24C36.5953 130.248 36.8227 130.258 37.0501 130.269C39.4511 130.377 41.9765 130.549 44.6076 130.782C49.4599 131.21 54.5396 131.847 59.7092 132.672C60.1456 132.741 60.5739 132.813 61.005 132.884C61.2377 132.921 61.4677 132.961 61.6978 133C61.9939 133.048 62.2875 133.098 62.5836 133.151C62.7476 133.177 62.9142 133.207 63.0807 133.236C63.5514 133.318 64.0195 133.402 64.4875 133.487C64.6039 133.508 64.7202 133.529 64.8366 133.55C72.5421 134.96 79.7902 136.692 85.9726 138.614C87.0356 138.945 88.059 139.278 89.04 139.614C89.0982 139.635 89.1564 139.653 89.2145 139.675C89.4552 139.756 89.6958 139.841 89.9311 139.923C90.0263 139.957 90.1242 139.992 90.2167 140.026C90.423 140.098 90.6266 140.172 90.8302 140.246C90.9254 140.28 91.0232 140.317 91.1211 140.351C91.3326 140.431 91.5389 140.507 91.7451 140.584C91.8271 140.616 91.9144 140.648 91.9937 140.679C95.0109 141.827 97.5071 142.983 99.3634 144.101C101.495 145.386 102.764 146.616 102.944 147.555V147.557C102.954 147.615 102.962 147.674 102.962 147.732C102.965 147.742 102.965 147.753 102.965 147.763C102.965 147.824 102.962 147.882 102.954 147.938V147.941C102.716 149.408 99.0461 151.106 89.4525 151.463Z" fill="#92140C"/>
<path d="M88.73 92.9757C85.9429 94.7871 81.3921 95.5222 76.2515 94.9907C70.6799 94.4142 65.7377 92.5262 63.0379 89.9453L63.0141 89.9215C59.3094 86.3041 57.2124 80.32 57.0749 74.2196L57.0776 74.2037C57.104 73.9393 57.0987 73.6881 57.067 73.4474V73.4368C56.6254 69.9939 50.7154 69.2377 49.1764 72.1887C48.9965 72.5298 48.8776 72.9238 48.83 73.3654C47.1297 78.781 43.8269 83.6042 39.8181 85.8942L39.789 85.9101C36.4228 87.7849 31.9857 87.6606 29.6401 87.4173C29.6349 87.4173 29.6349 87.4173 29.6349 87.4173C24.1823 86.8488 19.5891 84.8021 17.3494 81.9357C13.8589 77.4641 11.7461 69.0208 14.8928 60.2391C16.0113 57.1241 18.3225 54.6569 21.2365 53.4723C24.9862 51.9465 29.8596 51.3515 34.6115 51.8434C38.9799 52.2955 42.8802 53.6309 45.588 55.6009C47.7061 57.1426 55.8215 60.8076 64.4552 57.5657C67.2503 56.5132 72.7319 55.7887 76.5715 56.188C82.9654 56.849 89.3938 59.2025 93.7701 62.492C96.5757 64.5995 98.3157 67.8388 98.5431 71.3849C99.191 81.4703 94.0821 89.4984 88.73 92.9757Z" fill="#F8BE52"/>
<path d="M79.4352 96.0087C78.3774 96.0087 77.2827 95.9505 76.1641 95.8342C70.4101 95.2392 65.2854 93.2665 62.4534 90.5588L62.4269 90.5323C58.6905 86.8832 56.3741 80.7933 56.226 74.238C56.226 74.201 56.2286 74.164 56.2313 74.127C56.2524 73.9234 56.2498 73.7409 56.226 73.5637C56.2233 73.5399 56.2207 73.5188 56.2207 73.495C56.0197 72.1781 54.724 71.4879 53.5658 71.279C52.2622 71.0463 50.5672 71.3557 49.9272 72.5827C49.7897 72.8392 49.7051 73.1301 49.6734 73.4527C49.6681 73.5109 49.6549 73.5664 49.639 73.6219C47.8065 79.45 44.2922 84.3129 40.2358 86.6293C40.2305 86.6346 40.2226 86.6372 40.2173 86.6425L40.1882 86.6584C36.6342 88.639 32.0067 88.5147 29.5607 88.2608C29.5554 88.2608 29.5501 88.2608 29.5475 88.2608C23.8675 87.6685 19.0575 85.5002 16.6802 82.4592C13.0469 77.8026 10.8363 69.0393 14.0914 59.9534C15.2946 56.611 17.7803 53.9614 20.9164 52.6842C24.7904 51.1082 29.8146 50.4947 34.696 50.9998C39.2125 51.4678 43.2583 52.8587 46.085 54.916C47.7404 56.1192 55.6627 59.9614 64.1563 56.7697C67.2872 55.593 72.8958 54.953 76.6586 55.3418C83.2007 56.0187 89.7877 58.4382 94.2777 61.8124C97.2816 64.0706 99.1459 67.54 99.3865 71.3319C100.058 81.7611 94.751 90.0748 89.1927 93.687C86.863 95.2022 83.4096 96.0087 79.4352 96.0087ZM57.9236 74.2513C58.0717 80.3543 60.1951 85.9814 63.6063 89.3133L63.6248 89.3318C66.1924 91.7884 70.9469 93.5891 76.3387 94.1471C81.2915 94.6601 85.6387 93.9752 88.2698 92.2643C93.413 88.9219 98.3235 81.1847 97.6968 71.4404C97.4879 68.1429 95.8696 65.131 93.2623 63.1716C89.0049 59.972 82.7326 57.6767 76.4867 57.0315C72.6393 56.6322 67.3163 57.3964 64.7539 58.3589C55.7051 61.7595 47.3146 57.9067 45.0908 56.2884C42.4993 54.403 38.7471 53.1258 34.5241 52.6895C29.9071 52.2109 25.1817 52.7821 21.5564 54.2576C18.8671 55.3523 16.7278 57.637 15.6886 60.5273C12.6529 69.0049 14.6706 77.1256 18.0183 81.4147C20.1152 84.0987 24.4889 86.0264 29.7141 86.5711C29.7194 86.5738 29.722 86.5738 29.7273 86.5738C31.9723 86.8065 36.2138 86.9334 39.3764 85.1696L39.4081 85.1538C43.0784 83.0515 46.286 78.5827 47.9995 73.1909C48.0603 72.6832 48.2058 72.2151 48.4279 71.7947C49.4671 69.8035 51.9078 69.2614 53.8646 69.6105C56.0832 70.0071 57.6698 71.4668 57.9104 73.3284C57.9131 73.3522 57.9157 73.376 57.9157 73.3998C57.9474 73.6748 57.9501 73.9604 57.9236 74.2513Z" fill="#92140C"/>
<path d="M94.2644 72.0118C94.0978 69.4151 92.8259 67.0405 90.7712 65.4989C84.8109 61.0221 74.4822 58.9119 68.2179 60.8951C65.7904 61.662 63.8204 63.4839 62.8076 65.8929C59.8592 72.9056 61.2898 82.3538 66.0019 86.9575C68.715 89.5516 74.2707 91.0615 79.1759 91.0615C82.0529 91.0615 84.7052 90.5432 86.4293 89.422C90.7078 86.6402 94.788 80.1801 94.2644 72.0118Z" fill="#92140C"/>
<path d="M46.1202 64.502C45.9166 62.0798 44.7557 59.9299 42.9391 58.6078C38.2639 55.2098 29.149 54.4403 23.0353 56.9286C20.9225 57.788 19.2407 59.5915 18.421 61.8735C15.856 69.0317 17.5298 75.8514 20.3275 79.4344C22.4007 82.0893 27.5544 83.7341 32.1291 83.7341C34.353 83.7341 36.442 83.3454 37.9704 82.4939C43.0554 79.5878 46.7099 71.5173 46.1202 64.502Z" fill="#92140C"/>
<path d="M85.851 176.753C85.7584 174.712 84.6108 172.871 82.8338 171.869C80.052 170.301 77.0719 168.99 74.4037 168.186C73.8061 167.152 72.8489 166.329 71.5347 165.758C67.8591 164.161 65.614 167.199 63.1495 171.708C61.2906 175.111 61.2192 177.98 62.1526 179.789L57.213 187.944C44.4304 186.326 40.1545 206.298 53.5031 211.158C74.2715 218.724 86.6998 195.314 85.851 176.753Z" fill="white"/>
<path d="M86.6964 176.713C86.5906 174.373 85.3002 172.287 83.2482 171.129C80.44 169.547 77.5471 168.275 74.9556 167.469C74.2575 166.409 73.2157 165.565 71.8724 164.981C67.385 163.032 64.7354 167.035 62.4057 171.301C60.4357 174.907 60.4172 177.798 61.2026 179.725L56.768 187.045C50.2313 186.495 46.0982 191.191 44.8871 196.21C43.5253 201.837 45.5508 209.167 53.2141 211.957C55.9668 212.962 58.6693 213.459 61.2792 213.459C65.5577 213.459 69.593 212.121 73.1998 209.466C81.741 203.186 87.2914 189.718 86.6964 176.713ZM72.1976 208.102C66.8614 212.023 60.4992 212.806 53.7932 210.362C47.1084 207.93 45.3446 201.528 46.5345 196.609C47.5209 192.529 50.7258 188.698 55.7764 188.698C56.1889 188.698 56.6094 188.727 57.043 188.779C57.0457 188.779 57.0483 188.779 57.0483 188.779C57.5534 188.936 60.872 190.096 61.668 193.857C61.7526 194.256 62.1043 194.528 62.4956 194.528C62.5538 194.528 62.612 194.523 62.6728 194.51C63.1303 194.415 63.4238 193.965 63.3259 193.505C62.5591 189.887 59.9412 188.198 58.463 187.516L62.2127 181.325C62.2814 181.399 62.3502 181.468 62.4216 181.534C63.2704 182.314 64.3228 182.706 65.4546 182.706C66.5785 182.706 67.779 182.322 68.9425 181.553C69.3338 181.293 69.4422 180.77 69.1831 180.379C68.924 179.987 68.3977 179.879 68.009 180.138C66.3325 181.246 64.6719 181.301 63.5692 180.286C63.4132 180.143 63.2704 179.977 63.1435 179.791C62.7733 179.257 62.5247 178.557 62.4454 177.708C62.3079 176.227 62.6913 174.31 63.8945 172.115C66.8164 166.76 68.5908 165.404 71.1981 166.536C71.3488 166.602 71.4916 166.67 71.6291 166.744C72.6524 167.273 73.3902 167.993 73.8212 168.897C73.9508 169.161 74.0513 169.439 74.128 169.738C74.5114 171.232 74.2232 173.149 73.2977 175.288C73.1099 175.717 73.3082 176.216 73.7393 176.401C74.1703 176.589 74.6674 176.391 74.8525 175.96C75.9023 173.543 76.2276 171.388 75.8256 169.547C77.9305 170.309 80.1967 171.356 82.4153 172.607C83.9569 173.474 84.9221 175.04 85.004 176.79C85.5726 189.263 80.3077 202.136 72.1976 208.102Z" fill="#92140C"/>
<path d="M66.9939 176.039C66.5312 176.039 66.0605 175.939 65.6163 175.725C52.987 169.627 47.9972 160.271 46.0351 153.499C43.9117 146.159 44.8055 140.233 44.8451 139.984C45.1175 138.249 46.7438 137.062 48.4784 137.337C50.2078 137.609 51.3925 139.23 51.1254 140.962C51.1095 141.068 50.422 145.987 52.2149 151.979C54.5868 159.901 60.0262 165.962 68.3769 169.992C69.9582 170.756 70.6219 172.657 69.8577 174.241C69.3104 175.378 68.176 176.039 66.9939 176.039Z" fill="#92140C"/>
<path d="M39.5482 182.962C38.4772 182.962 37.4327 182.423 36.8351 181.442C35.9202 179.945 36.3882 177.991 37.8796 177.073C37.9748 177.012 41.7932 174.582 46.1748 169.101C50.2471 164.008 55.6573 155.154 58.3175 141.893C58.6639 140.172 60.3378 139.056 62.0592 139.402C63.7807 139.746 64.8966 141.425 64.5502 143.147C58.8834 171.391 41.9228 182.055 41.2035 182.494C40.6879 182.811 40.114 182.962 39.5482 182.962Z" fill="#92140C"/>
<path d="M40.5611 175.513C37.3192 172.699 33.4902 174.87 33.4902 174.87C31.031 169.132 31.6313 163.783 24.727 160.655C17.8729 157.55 10.8628 162.019 8.09685 164.148C7.66847 164.436 7.2586 164.777 6.87253 165.163C6.86989 165.168 6.86724 165.171 6.86724 165.171C3.56449 168.506 2.07839 175.447 6.38598 184.192C13.999 199.64 28.3364 207.332 38.5356 199.291C44.5699 195.142 42.5311 187.534 42.5311 187.534C46.3099 185.313 44.8899 179.268 40.5611 175.513Z" fill="white"/>
<path d="M41.1165 174.873C38.4114 172.525 35.3995 173.191 33.9451 173.739C33.4824 172.533 33.1359 171.34 32.7948 170.182C31.6181 166.147 30.5049 162.339 25.0761 159.883C17.6984 156.54 10.3314 161.316 7.49401 163.534C7.48872 163.54 7.48079 163.545 7.4755 163.548C7.1053 163.812 6.74567 164.108 6.40984 164.439C6.39398 164.449 6.37811 164.465 6.36753 164.478C6.32787 164.513 6.30143 164.539 6.28556 164.552C6.25647 164.579 6.23003 164.611 6.20359 164.642C5.27014 165.602 4.49271 166.805 3.93212 168.183C2.85324 170.83 1.64214 176.478 5.62448 184.565C10.4292 194.317 17.9179 201.187 25.6578 202.94C26.9324 203.228 28.1884 203.371 29.4233 203.371C32.9112 203.371 36.1901 202.221 39.0566 199.962C39.0592 199.962 39.0592 199.96 39.0619 199.957C44.4351 196.226 43.8243 189.901 43.4752 187.923C44.6784 187.024 45.3871 185.707 45.5351 184.081C45.8128 181.056 44.0781 177.441 41.1165 174.873ZM5.50284 168.82C5.86776 167.929 6.33316 167.125 6.87789 166.44C7.0339 166.242 7.1952 166.057 7.36444 165.877C7.7558 165.467 8.17889 165.11 8.62578 164.817C8.62842 164.814 8.62842 164.814 8.63107 164.812C9.04623 164.537 9.48254 164.32 9.93472 164.161C11.4552 163.624 12.8197 163.381 14.0598 163.381C17.2145 163.381 19.5204 164.965 21.3608 167.281C15.0488 168.648 7.47021 172.898 4.58526 174.611C4.47949 171.993 5.00307 170.047 5.50284 168.82ZM7.48079 184.477C9.72317 182.996 17.7672 177.888 25.7239 175.307C25.8482 175.595 25.9725 175.883 26.0941 176.169C26.6812 177.523 27.2391 178.816 27.8129 179.974C21.4692 183.287 13.0471 188.282 10.6407 189.718C9.50105 188.1 8.44068 186.349 7.48079 184.477ZM6.73245 182.938C5.63241 180.521 5.0348 178.366 4.75979 176.489C6.85144 175.22 15.7549 170.002 22.4397 168.797C23.4128 170.309 24.2537 172.015 25.0338 173.747C17.0532 176.365 9.24984 181.275 6.73245 182.938ZM11.6535 191.091C14.2212 189.557 22.4265 184.699 28.6089 181.473C29.4683 182.946 30.4017 184.089 31.5388 184.702C32.0729 184.988 32.6044 185.337 33.1227 185.733C27.1968 190.522 18.3463 194.941 16.2097 195.977C14.6046 194.571 13.0735 192.931 11.6535 191.091ZM17.6535 197.162C20.6997 195.657 28.8098 191.472 34.429 186.857C35.7485 188.121 36.9226 189.655 37.7741 191.218C32.6177 196.625 24.8857 199.822 23.315 200.436C21.3767 199.669 19.4754 198.564 17.6535 197.162ZM26.0307 201.282C25.9619 201.266 25.8905 201.248 25.8191 201.229C28.8336 199.888 34.3259 197.08 38.5409 192.86C38.8794 193.724 39.0962 194.571 39.165 195.356C39.2628 196.488 39.0539 197.403 38.5383 198.088C38.3876 198.286 38.213 198.463 38.0121 198.622C37.7582 198.823 37.5017 199.01 37.2426 199.188C33.9451 201.478 30.0871 202.202 26.0307 201.282ZM43.8481 183.925C43.7582 184.9 43.4038 185.688 42.793 186.283L41.4841 184.004C41.2514 183.597 40.7357 183.457 40.3285 183.689C39.9213 183.922 39.7811 184.44 40.0138 184.848L41.7353 187.851V187.854C41.8966 188.531 42.6423 192.191 40.8732 195.48C40.8706 195.39 40.8626 195.301 40.8547 195.205C40.4792 190.911 36.6608 185.527 32.34 183.205C30.5683 182.253 29.151 178.969 27.6516 175.495C26.4987 172.829 25.2347 169.91 23.5794 167.445C23.5635 167.421 23.5503 167.403 23.5344 167.382C22.9262 166.483 22.2652 165.644 21.5353 164.907C19.3934 162.738 16.9501 161.66 14.1365 161.66C14.1074 161.66 14.081 161.66 14.0493 161.662C17.0691 160.427 20.7685 159.79 24.378 161.427C29.0954 163.563 30.0104 166.694 31.1686 170.655C31.5943 172.11 32.0306 173.614 32.697 175.172C32.6996 175.175 32.7023 175.183 32.7049 175.188C32.7922 175.423 33.5035 177.343 33.9028 178.364C34.0324 178.699 34.355 178.903 34.6934 178.903C34.7939 178.903 34.8997 178.885 35.0002 178.845C35.4365 178.676 35.6533 178.184 35.4815 177.748C35.2223 177.081 34.8257 176.023 34.5612 175.315C35.6666 174.902 37.9724 174.389 40.0059 176.15C42.5286 178.342 44.0728 181.465 43.8481 183.925Z" fill="#92140C"/>
<path d="M64.8835 105.378C60.6262 100.808 63.9263 95.5542 64.0744 95.3242C64.3309 94.9328 64.2198 94.4066 63.8258 94.1527C63.4345 93.8962 62.9082 94.0073 62.6544 94.3987C62.6253 94.441 60.9329 97.1038 61.0493 100.467C55.0784 102.678 49.9458 102.879 46.1909 101.044C43.3403 99.6503 42.2455 97.5454 42.235 97.5242C42.0261 97.1091 41.5184 96.9398 41.1006 97.1487C40.6801 97.355 40.5109 97.8654 40.7171 98.2858C40.77 98.3889 42.0234 100.851 45.3315 102.511C46.9022 103.299 49.1208 103.979 52.0983 103.979C54.5998 103.979 57.6381 103.498 61.2714 102.191C61.5993 103.619 62.3133 105.108 63.6407 106.536C63.8099 106.716 64.0347 106.806 64.2621 106.806C64.4684 106.806 64.6773 106.729 64.8412 106.578C65.1823 106.258 65.2035 105.722 64.8835 105.378Z" fill="#92140C"/>
<path d="M38.6515 100.835C38.3844 101.059 38.2654 101.448 38.3606 101.784C38.4373 102.059 38.6356 102.281 38.8366 102.485C39.0799 102.728 39.3443 102.969 39.6696 103.077C39.9975 103.183 40.4047 103.119 40.6083 102.842C40.7749 102.614 40.7696 102.308 40.759 102.025C40.7458 101.678 40.722 101.305 40.5105 101.03C40.2698 100.713 39.8573 100.538 39.458 100.525C39.2438 100.52 38.9186 100.61 38.6515 100.835Z" fill="#F8BE52"/>
<path d="M40.989 101.3C40.8938 100.962 40.6823 100.69 40.3914 100.494C40.1137 100.309 39.7515 100.2 39.4183 100.208C39.0481 100.219 38.707 100.38 38.4267 100.61C38.4081 100.626 38.3923 100.642 38.3817 100.658C38.1596 100.88 38.03 101.176 38.0115 101.488C37.9903 101.813 38.1226 102.117 38.313 102.371C38.6937 102.871 39.2437 103.389 39.8995 103.44C40.2089 103.466 40.5368 103.363 40.7616 103.146C41.0102 102.908 41.0789 102.562 41.0815 102.231C41.0842 101.924 41.071 101.597 40.989 101.3ZM40.394 102.58C40.357 102.668 40.3094 102.71 40.238 102.749C40.1931 102.776 40.0767 102.805 40.0265 102.808C39.8361 102.816 39.6642 102.749 39.4817 102.63C39.294 102.504 39.13 102.337 38.9767 102.17C38.8894 102.08 38.8101 101.991 38.7466 101.882C38.6937 101.792 38.6514 101.679 38.6461 101.602C38.6303 101.385 38.7096 101.205 38.8762 101.06C38.9449 101.002 39.0534 100.943 39.1221 100.914C39.1671 100.896 39.2173 100.88 39.2623 100.869C39.2861 100.864 39.3072 100.859 39.331 100.854C39.3416 100.851 39.3495 100.848 39.3548 100.848C39.3601 100.848 39.3654 100.848 39.3733 100.846C39.5611 100.84 39.7515 100.872 39.9181 100.957C40.1005 101.047 40.2539 101.171 40.3385 101.361C40.4205 101.541 40.4284 101.761 40.439 101.967C40.4469 102.17 40.4681 102.408 40.394 102.58Z" fill="#92140C"/>
<path d="M67.7845 99.4519C67.5121 99.4466 67.2583 99.6079 67.1631 99.8486C67.0811 100.047 67.1023 100.274 67.1313 100.491C67.1684 100.753 67.2186 101.025 67.372 101.25C67.5253 101.477 67.8083 101.644 68.0648 101.589C68.2737 101.541 68.4112 101.364 68.5355 101.197C68.6888 100.991 68.8475 100.766 68.8449 100.502C68.8422 100.198 68.6703 99.8909 68.4297 99.682C68.2975 99.5709 68.0542 99.4572 67.7845 99.4519Z" fill="#F8BE52"/>
<path d="M69.0986 100.126C69.0087 99.864 68.8474 99.6181 68.6332 99.441C68.4111 99.2585 68.1361 99.1633 67.8479 99.1421C67.8267 99.1369 67.8055 99.1342 67.7844 99.1342C67.7606 99.1316 67.7368 99.1342 67.7156 99.1395C67.4829 99.1554 67.2608 99.2453 67.0889 99.4066C66.8827 99.597 66.7954 99.8693 66.7875 100.142C66.7796 100.409 66.8271 100.694 66.8959 100.951C66.9647 101.202 67.0889 101.453 67.2846 101.63C67.475 101.8 67.7289 101.932 67.988 101.916C68.2577 101.9 68.4825 101.76 68.6517 101.559C68.813 101.369 68.9717 101.16 69.0695 100.93C69.1779 100.673 69.1912 100.393 69.0986 100.126ZM68.5274 100.446C68.5274 100.427 68.5248 100.435 68.5274 100.446ZM67.4909 99.9064C67.4803 99.9196 67.4724 99.9354 67.4909 99.9064ZM67.8505 101.258C67.8822 101.273 67.8664 101.263 67.8505 101.258ZM68.5248 100.562C68.4931 100.718 68.4005 100.848 68.2921 100.993C68.2709 101.022 68.2524 101.049 68.2313 101.075C68.226 101.08 68.2154 101.094 68.2128 101.096C68.1995 101.112 68.1863 101.131 68.1731 101.144C68.1467 101.173 68.1202 101.197 68.0938 101.223C68.0885 101.229 68.0911 101.229 68.0885 101.229C68.0858 101.231 68.0885 101.229 68.0858 101.231C68.07 101.242 68.0515 101.252 68.033 101.263C68.0356 101.258 67.9986 101.273 67.988 101.279C67.9748 101.279 67.9616 101.281 67.9589 101.281C67.9536 101.281 67.9351 101.279 67.9245 101.279C67.9166 101.276 67.9087 101.276 67.9087 101.276C67.8902 101.268 67.869 101.263 67.8505 101.258C67.8452 101.255 67.8452 101.255 67.8399 101.25C67.8161 101.236 67.7923 101.226 67.7712 101.21C67.7606 101.205 67.7527 101.197 67.7421 101.191C67.7394 101.186 67.7236 101.173 67.7209 101.17C67.7077 101.154 67.6918 101.139 67.676 101.125C67.6733 101.123 67.6601 101.107 67.6548 101.104C67.6072 101.038 67.5649 100.956 67.549 100.903C67.52 100.824 67.4962 100.742 67.4803 100.657C67.4618 100.573 67.4459 100.47 67.4406 100.414C67.4274 100.306 67.4168 100.195 67.4274 100.086C67.4274 100.078 67.4274 100.076 67.4274 100.073C67.4274 100.07 67.4301 100.065 67.4301 100.06C67.438 100.028 67.4459 99.9989 67.4539 99.9672C67.4433 100.002 67.4829 99.9222 67.4909 99.9064C67.4935 99.9037 67.4962 99.9011 67.4962 99.8984C67.5147 99.8799 67.5305 99.864 67.549 99.8455C67.5517 99.8429 67.5517 99.8455 67.5517 99.8429C67.5543 99.8429 67.5543 99.8429 67.557 99.8402C67.5781 99.827 67.5993 99.8138 67.6204 99.8032C67.6231 99.8006 67.631 99.7979 67.639 99.7953C67.6548 99.79 67.6707 99.7847 67.6866 99.7794C67.6998 99.7768 67.713 99.7741 67.7262 99.7715C67.7315 99.7715 67.7738 99.7689 67.7844 99.7689C67.8664 99.7741 67.9166 99.7821 68.0092 99.8112C68.0224 99.8165 68.1096 99.8508 68.0753 99.835C68.1149 99.8535 68.1546 99.8773 68.1943 99.9011C68.1969 99.9037 68.2075 99.9116 68.2154 99.9169C68.2207 99.9249 68.2286 99.9302 68.2286 99.9302C68.263 99.9619 68.2947 99.9936 68.3265 100.028C68.3371 100.041 68.3503 100.057 68.3635 100.07C68.3635 100.073 68.3661 100.078 68.3714 100.086C68.4005 100.128 68.427 100.171 68.4534 100.218C68.4613 100.234 68.4693 100.253 68.4772 100.271C68.4798 100.274 68.4798 100.274 68.4825 100.282C68.4957 100.316 68.5063 100.353 68.5142 100.393C68.5195 100.411 68.5248 100.433 68.5274 100.454C68.5274 100.459 68.5274 100.462 68.5274 100.47C68.5274 100.493 68.5274 100.515 68.5274 100.538C68.5274 100.544 68.5248 100.554 68.5248 100.562Z" fill="#92140C"/>
<path d="M73.4878 103.725C73.1388 103.455 72.6998 103.434 72.4116 103.677C72.1763 103.878 72.052 104.217 71.9436 104.553C71.814 104.957 71.7003 105.388 71.7479 105.856C71.7955 106.324 72.0493 106.835 72.4195 107.004C72.7236 107.141 73.0224 107.028 73.2974 106.914C73.6333 106.774 73.9903 106.613 74.1648 106.237C74.3631 105.809 74.3446 105.203 74.1701 104.677C74.0749 104.391 73.8342 103.997 73.4878 103.725Z" fill="#F8BE52"/>
<path d="M73.7123 103.5C73.7017 103.492 73.6911 103.487 73.6779 103.479C73.6673 103.469 73.6594 103.461 73.6462 103.45C73.3447 103.228 72.9349 103.122 72.5673 103.239C72.2103 103.352 71.9723 103.646 71.8216 103.976C71.5016 104.685 71.2716 105.571 71.5254 106.33C71.6392 106.671 71.8322 106.996 72.131 107.202C72.4774 107.446 72.9005 107.411 73.276 107.263C73.5907 107.142 73.9106 107.007 74.1618 106.774C74.4501 106.504 74.5743 106.126 74.614 105.743C74.6986 104.907 74.3707 104.029 73.7123 103.5ZM73.8895 106.076C73.7943 106.298 73.5986 106.425 73.3897 106.528C73.1755 106.631 72.8899 106.785 72.6466 106.745C72.4324 106.711 72.2923 106.494 72.2024 106.317C71.9353 105.785 72.0781 105.174 72.25 104.637C72.3293 104.392 72.4192 104.058 72.6413 103.9C72.8502 103.754 73.1015 103.844 73.2892 103.976C73.6938 104.312 73.9344 104.77 73.9794 105.296C74.0032 105.555 73.9952 105.835 73.8895 106.076Z" fill="#92140C"/>
<path d="M40.8924 111.092C39.7342 108.593 36.955 109.963 36.955 109.963C36.955 109.963 40.0118 107.551 38.6447 104.979C37.0819 102.043 33.7025 103.717 33.7025 103.717C33.7025 103.717 36.7726 101.253 35.0775 98.2805C33.3799 95.3083 29.9978 97.2096 29.9978 97.2096C29.9978 97.2096 32.7029 95.2131 31.0688 92.143C28.8898 88.0496 21.3483 92.7539 21.3483 92.7539C20.3989 90.9743 18.1037 88.1898 13.8992 91.2017C3.36161 98.7459 6.18839 108.527 6.18839 108.527C6.18839 108.527 0.423777 108.741 5.0672 117.462C9.92216 126.585 13.6559 122.608 13.6559 122.608C13.6559 122.608 17.4267 125.715 24.577 124.406C24.577 124.406 30.7752 122.751 36.6615 118.586C38.4781 117.301 42.2278 113.972 40.8924 111.092Z" fill="white"/>
<path d="M41.6607 110.735C41.2482 109.846 40.5951 109.222 39.7727 108.932C39.5479 108.852 39.3258 108.802 39.1063 108.773C39.7859 107.668 40.2407 106.173 39.3919 104.582C38.514 102.932 37.1337 102.405 35.8432 102.387C36.4885 101.141 36.7661 99.5336 35.8115 97.8598C34.8596 96.1885 33.429 95.7099 32.1148 95.7575C32.5484 94.6707 32.6357 93.2851 31.8159 91.7435C31.2818 90.7439 30.4568 90.0881 29.362 89.7946C26.7336 89.0886 23.1796 90.7703 21.6485 91.6033C20.9531 90.5614 19.9007 89.4931 18.3907 89.1388C16.857 88.7792 15.1805 89.2393 13.4062 90.5112C7.72886 94.5729 5.84082 99.2956 5.25643 102.543C4.83334 104.886 5.00786 106.803 5.18239 107.863C4.48164 108.083 3.55349 108.559 2.96116 109.587C1.91137 111.415 2.36883 114.199 4.31769 117.861C6.42257 121.817 8.65173 123.978 10.9417 124.284C12.174 124.448 13.1206 124.028 13.6865 123.66C14.7442 124.327 17.259 125.58 21.1382 125.58C22.2277 125.58 23.4255 125.48 24.7292 125.242C24.7503 125.239 24.7715 125.234 24.7953 125.228C25.0544 125.157 31.2078 123.486 37.1495 119.279C38.2152 118.525 43.4377 114.569 41.6607 110.735ZM36.1711 117.893C30.6948 121.77 24.8614 123.446 24.3881 123.578C18.5732 124.631 15.125 122.595 14.3582 122.071L12.2163 118.049C11.9968 117.634 11.4838 117.478 11.0713 117.7C10.6588 117.92 10.5001 118.433 10.7222 118.848L12.5838 122.346C12.2533 122.523 11.7588 122.687 11.1347 122.597C9.96067 122.425 8.0832 121.328 5.81438 117.063C4.20928 114.051 3.71744 111.7 4.42347 110.447C4.7593 109.852 5.32253 109.585 5.72712 109.466L7.65482 113.083C7.8743 113.498 8.3873 113.654 8.79981 113.435C9.21497 113.213 9.37098 112.7 9.15151 112.287L6.98317 108.215C6.87739 107.787 6.41199 105.61 6.94086 102.76C7.72886 98.5235 10.2357 94.8664 14.3925 91.8889C15.7517 90.9158 16.9681 90.5456 18.0047 90.7889C18.9461 91.0083 19.6547 91.7064 20.1572 92.4283C18.3802 93.4252 14.1651 96.1013 11.6953 100.216C11.4547 100.618 11.5843 101.139 11.9862 101.379C12.1237 101.461 12.2744 101.501 12.4225 101.501C12.7108 101.501 12.9911 101.353 13.1497 101.088C16.0029 96.334 21.6591 93.5442 21.7173 93.5178C21.7305 93.5099 21.7411 93.5019 21.7543 93.494C21.7675 93.4861 21.7808 93.4808 21.794 93.4728C23.0289 92.706 26.7203 90.8391 28.9231 91.4314C29.5551 91.6033 30.0125 91.9656 30.3193 92.542C31.5568 94.869 29.7058 96.3657 29.4942 96.527C29.4493 96.5588 29.4096 96.5958 29.3752 96.6328L27.2571 98.2432C26.8843 98.5261 26.8103 99.0576 27.0932 99.4305C27.2624 99.65 27.5136 99.7663 27.7701 99.7663C27.95 99.7663 28.1298 99.7108 28.2831 99.5944L30.5229 97.8915C31.0438 97.6323 33.2069 96.7174 34.3386 98.7006C35.6502 100.999 33.2703 102.974 33.1725 103.056C33.1355 103.082 33.1064 103.114 33.0773 103.148L30.5229 104.878C30.1342 105.142 30.0337 105.668 30.2955 106.057C30.4594 106.298 30.7265 106.43 30.9988 106.43C31.1628 106.43 31.3267 106.382 31.4748 106.282L34.2514 104.399C34.8886 104.135 36.893 103.495 37.8952 105.378C38.9106 107.287 36.4514 109.281 36.4276 109.299C36.4223 109.302 36.4197 109.307 36.4144 109.312L34.4708 110.624C34.0821 110.886 33.979 111.415 34.2408 111.801C34.4047 112.044 34.6718 112.176 34.9442 112.176C35.1081 112.176 35.2721 112.128 35.4175 112.031L37.4007 110.693C37.7471 110.545 38.5669 110.301 39.2121 110.534C39.6035 110.674 39.9023 110.973 40.1217 111.449C41.1266 113.617 38.1121 116.518 36.1711 117.893Z" fill="#92140C"/>
<path d="M133.689 119.34C122.474 119.34 114.224 115.838 109.099 112.721C102.846 108.916 99.7174 104.817 99.5878 104.645C98.5327 103.244 98.8104 101.247 100.212 100.189C101.611 99.1343 103.599 99.412 104.657 100.806C104.715 100.882 107.375 104.283 112.656 107.437C119.735 111.668 127.953 113.493 137.082 112.858C138.837 112.739 140.35 114.059 140.472 115.812C140.593 117.565 139.274 119.086 137.521 119.207C136.209 119.297 134.929 119.34 133.689 119.34Z" fill="#92140C"/>
<path d="M142.238 130.724C135.855 129.267 133.425 124.457 133.425 124.457C133.425 124.457 128.324 126.186 128.324 115.979C128.324 106.219 133.448 108.71 133.448 108.71C136.452 101.747 141.376 104.957 143.169 97.4554C143.169 97.4554 144.436 87.444 148.468 87.7799C153.376 88.1897 153.093 94.9142 151.676 100.663C154.399 99.4307 166.566 99.0579 167.129 104.698C167.428 107.662 164.884 108.458 164.884 108.458C164.884 108.458 169.562 111.283 165.241 115.41C165.241 115.41 168.581 118.962 164.961 122.397C166.566 123.854 167.288 127.217 162.996 128.957C154.886 132.244 142.238 130.724 142.238 130.724Z" fill="white"/>
<path d="M167.896 111.497C167.755 110.217 167.026 109.231 166.38 108.588C167.303 107.856 168.168 106.573 167.972 104.614C167.814 103.03 166.872 101.697 165.246 100.758C161.867 98.8093 156.02 98.7617 152.823 99.436C153.585 95.7816 153.915 91.4211 152.096 88.8825C151.26 87.719 150.062 87.0632 148.537 86.9363C143.891 86.5502 142.502 95.9957 142.333 97.302C141.476 100.84 139.977 101.657 138.076 102.694C136.389 103.614 134.49 104.648 132.991 107.676C132.274 107.522 131.187 107.469 130.137 108.128C128.371 109.233 127.475 111.875 127.475 115.979C127.475 120.408 128.419 123.33 130.275 124.663C131.29 125.39 132.33 125.456 132.991 125.395C133.871 126.776 136.595 130.306 142.047 131.551C142.077 131.557 142.106 131.562 142.135 131.567C142.383 131.596 145.268 131.932 149.108 131.932C153.429 131.932 158.96 131.506 163.31 129.745C165.984 128.661 166.79 127.048 166.997 125.884C167.208 124.702 166.864 123.415 166.113 122.412C168.337 119.8 167.467 117.034 166.367 115.463C167.528 114.165 168.044 112.835 167.896 111.497ZM165.328 125.586C165.14 126.651 164.223 127.545 162.676 128.172C155.097 131.242 143.19 129.978 142.381 129.888C137.251 128.698 134.831 125.16 134.297 124.274V119.813C134.297 119.345 133.916 118.964 133.448 118.964C132.98 118.964 132.599 119.345 132.599 119.813V123.719C132.24 123.716 131.75 123.631 131.264 123.282C130.309 122.598 129.172 120.776 129.172 115.979C129.172 112.61 129.831 110.336 131.023 109.574C131.589 109.215 132.195 109.241 132.602 109.326V113.364C132.602 113.834 132.98 114.212 133.448 114.212C133.916 114.212 134.297 113.834 134.297 113.364V108.889C135.593 105.981 137.195 105.105 138.887 104.183C140.892 103.09 142.965 101.961 143.994 97.6537C143.999 97.6246 144.004 97.5929 144.01 97.5638C144.39 94.5599 145.972 88.4224 148.396 88.626C149.42 88.7133 150.179 89.1205 150.721 89.8742C151.982 91.6326 152.059 95.34 150.943 100.076C149.224 100.964 148.18 102.506 148.127 104.278C148.09 105.566 148.6 106.79 149.486 107.67C148.476 108.445 147.815 109.566 147.815 111.187C147.815 112.681 148.632 113.813 150.081 114.44C148.64 115.431 147.815 116.746 147.815 118.258C147.815 119.493 148.248 120.974 150.052 121.788C148.767 123.015 148.449 124.536 149.195 126.033C149.872 127.386 151.892 128.098 154.309 128.098C156.208 128.098 158.347 127.661 160.275 126.757C160.7 126.559 160.883 126.054 160.685 125.631C160.486 125.205 159.981 125.022 159.558 125.221C155.655 127.048 151.35 126.553 150.713 125.276C150.544 124.938 150.033 123.914 151.533 122.746C154.119 120.731 160.804 119.948 164.397 123.037C164.95 123.539 165.521 124.507 165.328 125.586ZM164.693 116.074C165.14 116.592 166.843 118.861 164.868 121.257C161.277 118.745 155.441 118.792 151.853 120.567C149.801 120.197 149.51 119.197 149.51 118.258C149.51 116.1 152.514 114.437 156.816 114.215C160.886 114.006 164.109 115.738 164.693 116.074ZM165.085 114.355C163.81 113.692 160.658 112.322 156.729 112.523C155.15 112.605 153.727 112.864 152.503 113.271C151.326 113.184 149.51 112.79 149.51 111.187C149.51 109.595 150.298 107.924 156.144 107.615C160.441 107.387 164.075 109.019 164.471 109.204C164.683 109.342 166.063 110.299 166.211 111.692C166.301 112.533 165.92 113.427 165.085 114.355ZM164.897 107.536C163.784 107.052 160.256 105.698 156.057 105.92C154.455 106.004 152.617 106.205 151.08 106.8C150.269 106.253 149.793 105.335 149.822 104.328C149.859 103.083 150.657 102.03 152.011 101.443C152.014 101.443 152.017 101.44 152.019 101.44C152.019 101.438 152.022 101.438 152.024 101.438C153.815 100.629 160.88 100.198 164.4 102.228C165.563 102.9 166.179 103.736 166.285 104.783C166.46 106.523 165.418 107.271 164.897 107.536Z" fill="#92140C"/>
<path d="M146.635 107.914C146.196 107.752 145.71 107.974 145.546 108.413C145.527 108.461 143.729 113.192 139.244 115.069C138.811 115.249 138.607 115.746 138.79 116.18C138.924 116.505 139.239 116.701 139.572 116.701C139.681 116.701 139.792 116.68 139.898 116.635C145.054 114.474 147.053 109.228 147.135 109.006C147.296 108.564 147.074 108.078 146.635 107.914Z" fill="#92140C"/>
</svg>
