<svg width="28" height="28" viewBox="0 0 28 28" fill="none" xmlns="http://www.w3.org/2000/svg">
<path d="M22.1666 11.8649C22.1672 12.0392 22.1287 12.2114 22.054 12.3689C21.9793 12.5263 21.8703 12.6651 21.7349 12.7749L14.7349 18.4099C14.5262 18.5815 14.2643 18.6753 13.9941 18.6753C13.7239 18.6753 13.462 18.5815 13.2532 18.4099L6.25325 12.5766C6.015 12.3785 5.86517 12.094 5.83672 11.7855C5.80828 11.477 5.90355 11.1698 6.10158 10.9316C6.29961 10.6933 6.58417 10.5435 6.89267 10.515C7.20117 10.4866 7.50833 10.5819 7.74658 10.7799L13.9999 15.9949L20.2532 10.9549C20.4245 10.8122 20.633 10.7216 20.8542 10.6937C21.0753 10.6659 21.2998 10.702 21.5011 10.7977C21.7024 10.8934 21.872 11.0448 21.99 11.2339C22.1079 11.4231 22.1692 11.642 22.1666 11.8649Z" fill="white"/>
</svg>
